<svg xmlns="http://www.w3.org/2000/svg" width="118.653" height="104.285" viewBox="0 0 118.653 104.285">
  <g id="Business_Moves" data-name="Business Moves" transform="translate(-8348.834 -915.712)">
    <path id="Path_2226" data-name="Path 2226" d="M134.749,208.3v52.769A10.415,10.415,0,0,1,124.32,271.5H40.429A10.415,10.415,0,0,1,30,261.068V208.3Z" transform="translate(8325.784 748.501)" fill="#fdcb02"/>
    <path id="Path_2227" data-name="Path 2227" d="M308.374,208.3v52.769A10.415,10.415,0,0,1,297.946,271.5H256V208.3Z" transform="translate(8152.159 748.501)" fill="#fdcb02"/>
    <path id="Path_2228" data-name="Path 2228" d="M188.142,309h-13.9a3.476,3.476,0,1,0,0,6.952h5.513l-12.465,12.465-3.476-3.476-7.971-7.971a3.475,3.475,0,0,0-4.916,0l-13.9,13.9a3.476,3.476,0,0,0,4.916,4.915l11.447-11.447,10.429,10.429,1.019,1.019a3.474,3.474,0,0,0,4.915,0l14.923-14.923v5.513a3.476,3.476,0,1,0,6.952,0v-13.9A3.474,3.474,0,0,0,188.142,309Z" transform="translate(8244.353 671.137)" fill="#8076f2"/>
    <path id="Path_2229" data-name="Path 2229" d="M280.333,309h-13.9a3.476,3.476,0,1,0,0,6.952h5.513l-12.465,12.465L256,324.942v9.831l1.019,1.019a3.475,3.475,0,0,0,4.915,0l14.923-14.923v5.513a3.476,3.476,0,1,0,6.952,0v-13.9A3.474,3.474,0,0,0,280.333,309Z" transform="translate(8152.159 671.137)" fill="#8076f2"/>
    <path id="Path_2230" data-name="Path 2230" d="M189.238,31H161.429A10.44,10.44,0,0,0,151,41.429v6.952a3.476,3.476,0,0,0,6.952,0V41.429a3.481,3.481,0,0,1,3.476-3.476h27.809a3.481,3.481,0,0,1,3.476,3.476v6.952a3.476,3.476,0,0,0,6.952,0V41.429A10.44,10.44,0,0,0,189.238,31Z" transform="translate(8232.826 884.712)" fill="#2d3031"/>
    <path id="Path_2231" data-name="Path 2231" d="M273.381,41.429v6.952a3.476,3.476,0,0,0,6.952,0V41.429A10.44,10.44,0,0,0,269.9,31H256v6.952h13.9A3.481,3.481,0,0,1,273.381,41.429Z" transform="translate(8152.159 884.712)" fill="#2d3031"/>
    <path id="Path_2232" data-name="Path 2232" d="M232.952,211H226v13.9a6.952,6.952,0,0,0,13.9,0V211Z" transform="translate(8175.208 746.426)" fill="#fff"/>
    <path id="Path_2233" data-name="Path 2233" d="M262.952,224.9V211H256v20.857A6.952,6.952,0,0,0,262.952,224.9Z" transform="translate(8152.159 746.426)" fill="#d8dbf0"/>
    <path id="Path_2234" data-name="Path 2234" d="M118.653,94.476v20.857a10.415,10.415,0,0,1-10.429,10.429h-97.8A10.415,10.415,0,0,1,0,115.333V94.476A3.442,3.442,0,0,1,3.476,91h111.7A3.442,3.442,0,0,1,118.653,94.476Z" transform="translate(8348.834 838.616)" fill="#eb8d00"/>
    <path id="Path_2235" data-name="Path 2235" d="M315.327,94.476v20.857A10.415,10.415,0,0,1,304.9,125.762H256V91h55.851A3.442,3.442,0,0,1,315.327,94.476Z" transform="translate(8152.159 838.616)" fill="#eb8d00"/>
  </g>
</svg>
