<svg xmlns="http://www.w3.org/2000/svg" width="43.203" height="42.323" viewBox="0 0 43.203 42.323">
  <g id="Complete_Order" data-name="Complete Order" transform="translate(-8066.968 -3746.5)">
    <path id="Path_2395" data-name="Path 2395" d="M65.967,88.7H47.608a15.306,15.306,0,0,0,3.283-9.516V49.628H79.214V65.211a.814.814,0,0,0,1.628,0v-16.4A.814.814,0,0,0,80.028,48H50.077a.814.814,0,0,0-.814.814V79.179a13.706,13.706,0,0,1-4.04,9.755.814.814,0,0,0,.575,1.389H65.967a.814.814,0,1,0,0-1.628Z" transform="translate(8021.983 3698.5)" opacity="0.89"/>
    <path id="Path_2396" data-name="Path 2396" d="M161.961,148.766H143.29a.814.814,0,1,0,0,1.628h18.671a.814.814,0,0,0,0-1.628Z" transform="translate(7934.411 3607.986)"/>
    <path id="Path_2397" data-name="Path 2397" d="M162.775,203.783a.814.814,0,0,0-.814-.814H143.29a.814.814,0,1,0,0,1.628h18.671a.814.814,0,0,0,.814-.814Z" transform="translate(7934.411 3559.297)"/>
    <path id="Path_2398" data-name="Path 2398" d="M154.66,257.986a.814.814,0,0,0-.814-.814H143.291a.814.814,0,0,0,0,1.628h10.556A.814.814,0,0,0,154.66,257.986Z" transform="translate(7934.41 3510.609)"/>
    <path id="Path_2399" data-name="Path 2399" d="M143.291,311.375a.814.814,0,0,0,0,1.628h6.639a.814.814,0,0,0,0-1.628Z" transform="translate(7934.41 3461.92)"/>
    <g id="_9165657_tick_check_icon" data-name="9165657_tick_check_icon" transform="translate(8089.715 3768.595)">
      <path id="Path_2407" data-name="Path 2407" d="M17.98,4.41a.446.446,0,0,0-.007-.67l-.151-.13c-.381-.328-.775-.667-1.188-.957C13.485.436,10.212.424,6.907,1.6A8.6,8.6,0,0,0,1.2,7.924,9.323,9.323,0,0,0,3.515,17.1c.063.067.128.134.192.2a13.475,13.475,0,0,0,4.219,2.672,15.547,15.547,0,0,0,4.157.42c4.562-.681,7.563-3.254,8.609-7.558a11.01,11.01,0,0,0,.3-2.573,8.36,8.36,0,0,0-.453-2.674.46.46,0,0,0-.663-.255l-.012.007a.462.462,0,0,0-.205.556,6.778,6.778,0,0,1,.4,2.307,11.262,11.262,0,0,1-.38,2.793,8.882,8.882,0,0,1-5.268,5.835c-2.871,1.374-6.988-.015-8.083-.738a12.793,12.793,0,0,1-3.132-3.044,8.561,8.561,0,0,1-.928-7.178A8.152,8.152,0,0,1,6.92,2.647c2.9-1.2,5.808-1.417,8.646.387.38.242,1.35,1,1.841,1.393a.445.445,0,0,0,.573-.017Z" transform="translate(-0.84 -0.822)"/>
      <path id="Path_2408" data-name="Path 2408" d="M44.856,33.062c.194-.185.3-.278.4-.38a129.831,129.831,0,0,1,10.015-9.143,1.217,1.217,0,0,1,.418-.291.711.711,0,0,1,.573.108.54.54,0,0,1,.064.525,1.59,1.59,0,0,1-.458.554c-1.07.951-2.169,1.868-3.22,2.838Q49.351,30.316,46.1,33.4c-.95.9-1.316.937-2.19-.025-.576-.633-2.313-2.768-2.845-3.441a2.493,2.493,0,0,1-.2-.33c-.12-.213-.2-.447.04-.612.266-.184.454.008.612.208s.3.424.466.616C42.51,30.414,44.283,32.435,44.856,33.062Z" transform="translate(-35.908 -20.513)"/>
    </g>
  </g>
</svg>
