<svg xmlns="http://www.w3.org/2000/svg" width="109.912" height="110.813" viewBox="0 0 109.912 110.813">
  <g id="Furniture_MOves" data-name="Furniture MOves" transform="translate(-8053.241 -905.663)">
    <path id="Path_2247" data-name="Path 2247" d="M113.1,484.276a3.829,3.829,0,0,1-3.829-3.829v-3.829h7.658v3.829a3.829,3.829,0,0,1-3.829,3.829Z" transform="translate(7967.172 532.2)" fill="#5e54ac"/>
    <path id="Path_2241" data-name="Path 2241" d="M371.179,484.276a3.829,3.829,0,0,0,3.829-3.829v-3.829H367.35v3.829A3.829,3.829,0,0,0,371.179,484.276Z" transform="translate(7764.946 532.2)" fill="#5e54ac"/>
    <path id="Path_2238" data-name="Path 2238" d="M89.5,71.623V13.514A13.514,13.514,0,0,1,103.01,0h45.046a13.514,13.514,0,0,1,13.514,13.514V71.623Z" transform="translate(7982.664 905.663)" fill="#e49824"/>
    <path id="Path_2239" data-name="Path 2239" d="M337.233,0h-6.306a13.514,13.514,0,0,1,13.514,13.514V37.907a4.494,4.494,0,0,1-1.44,3.3,19.306,19.306,0,0,0-6.218,14.2V71.623h13.964V13.514A13.514,13.514,0,0,0,337.233,0Z" transform="translate(7793.486 905.663)" fill="#df8621"/>
    <path id="Path_2248" data-name="Path 2248" d="M103.46,188.673V204.89H89.5V170.077A19.4,19.4,0,0,1,103.46,188.673Z" transform="translate(7982.664 772.396)" fill="#df8621"/>
    <path id="Path_2242" data-name="Path 2242" d="M126.959,330.927h55.857v31.532H126.959Z" transform="translate(7953.309 646.359)" fill="#eab14d"/>
    <path id="Path_2243" data-name="Path 2243" d="M360.065,330.927h5.406v31.532h-5.406Z" transform="translate(7770.655 646.359)" fill="#e7a52e"/>
    <path id="Path_2244" data-name="Path 2244" d="M126.959,379.491h55.857V390H126.959Z" transform="translate(7953.309 608.305)" fill="#e49824"/>
    <path id="Path_2245" data-name="Path 2245" d="M360.065,379.49h5.406V390h-5.406Z" transform="translate(7770.655 608.306)" fill="#df8621"/>
    <path id="Path_2246" data-name="Path 2246" d="M126.959,282v-6.757a6.757,6.757,0,0,1,6.757-6.757h42.343a6.757,6.757,0,0,1,6.757,6.757V282Z" transform="translate(7953.309 695.285)" fill="#fdcb02"/>
    <path id="Path_2249" data-name="Path 2249" d="M15.595,193.561a13.513,13.513,0,0,0-3.153,26.654v25.6a9.009,9.009,0,0,0,9.009,9.009h7.658V207.075a13.514,13.514,0,0,0-13.514-13.514Z" transform="translate(8051.16 753.994)" fill="#eab14d"/>
    <path id="Path_2250" data-name="Path 2250" d="M56.365,193.561a13.575,13.575,0,0,0-2.252.19,13.515,13.515,0,0,1,11.262,13.323v47.749h4.5V207.075a13.514,13.514,0,0,0-13.514-13.514Z" transform="translate(8010.389 753.995)" fill="#e7a52e"/>
    <circle id="Ellipse_26" data-name="Ellipse 26" cx="3.604" cy="3.604" r="3.604" transform="translate(8063.151 957.466)" fill="#f1cb86"/>
    <path id="Path_2236" data-name="Path 2236" d="M412.069,207.075a13.514,13.514,0,0,0-27.028,0v47.749H392.7a9.009,9.009,0,0,0,9.009-9.009v-25.6A13.517,13.517,0,0,0,412.069,207.075Z" transform="translate(7751.084 753.994)" fill="#eab14d"/>
    <path id="Path_2237" data-name="Path 2237" d="M413.806,196.127A13.51,13.51,0,0,1,411.181,219a4.51,4.51,0,0,0-2.562,4.1v24.724a9.009,9.009,0,0,1-9.009,9.009h4.5a9.009,9.009,0,0,0,9.009-9.009v-25.6a13.513,13.513,0,0,0,.682-26.1Z" transform="translate(7739.668 751.984)" fill="#e7a52e"/>
    <circle id="Ellipse_15" data-name="Ellipse 15" cx="3.604" cy="3.604" r="3.604" transform="translate(8146.035 957.466)" fill="#f1cb86"/>
    <circle id="Ellipse_17" data-name="Ellipse 17" cx="2.027" cy="2.027" r="2.027" transform="translate(8106.17 917.6)" fill="#eab14d"/>
    <circle id="Ellipse_18" data-name="Ellipse 18" cx="2.027" cy="2.027" r="2.027" transform="translate(8116.08 917.6)" fill="#eab14d"/>
    <circle id="Ellipse_22" data-name="Ellipse 22" cx="2.027" cy="2.027" r="2.027" transform="translate(8096.259 917.6)" fill="#eab14d"/>
    <circle id="Ellipse_19" data-name="Ellipse 19" cx="2.027" cy="2.027" r="2.027" transform="translate(8106.17 935.618)" fill="#eab14d"/>
    <circle id="Ellipse_20" data-name="Ellipse 20" cx="2.027" cy="2.027" r="2.027" transform="translate(8116.08 935.618)" fill="#eab14d"/>
    <circle id="Ellipse_23" data-name="Ellipse 23" cx="2.027" cy="2.027" r="2.027" transform="translate(8096.259 935.618)" fill="#eab14d"/>
    <circle id="Ellipse_21" data-name="Ellipse 21" cx="2.027" cy="2.027" r="2.027" transform="translate(8111.124 927.51)" fill="#eab14d"/>
    <circle id="Ellipse_16" data-name="Ellipse 16" cx="2.027" cy="2.027" r="2.027" transform="translate(8121.034 927.51)" fill="#eab14d"/>
    <circle id="Ellipse_24" data-name="Ellipse 24" cx="2.027" cy="2.027" r="2.027" transform="translate(8101.215 927.51)" fill="#eab14d"/>
    <circle id="Ellipse_25" data-name="Ellipse 25" cx="2.027" cy="2.027" r="2.027" transform="translate(8091.305 927.51)" fill="#eab14d"/>
    <path id="Path_2251" data-name="Path 2251" d="M59.58,313.977a1.672,1.672,0,0,0-2.2-.863,11.761,11.761,0,0,1-4.736.984,11.91,11.91,0,0,1-2.74-.319l.01,0V317.2a15.3,15.3,0,0,0,2.729.246,15.078,15.078,0,0,0,6.075-1.265A1.672,1.672,0,0,0,59.58,313.977Z" transform="translate(8013.688 660.426)" fill="#e7a52e"/>
    <path id="Path_2240" data-name="Path 2240" d="M416.875,313.977a1.672,1.672,0,0,1,2.2-.863,11.761,11.761,0,0,0,4.736.984,11.91,11.91,0,0,0,2.74-.319l-.01,0V317.2a15.3,15.3,0,0,1-2.729.246,15.079,15.079,0,0,1-6.075-1.265A1.672,1.672,0,0,1,416.875,313.977Z" transform="translate(7726.25 660.426)" fill="#e7a52e"/>
  </g>
</svg>
