<svg xmlns="http://www.w3.org/2000/svg" width="31" height="31" viewBox="0 0 31 31">
  <path id="Instagram" d="M9.039,0A9.052,9.052,0,0,0,0,9.044V21.961A9.052,9.052,0,0,0,9.044,31H21.961A9.052,9.052,0,0,0,31,21.956V9.039A9.052,9.052,0,0,0,21.956,0Zm15.5,5.167A1.292,1.292,0,1,1,23.25,6.458,1.292,1.292,0,0,1,24.542,5.167ZM15.5,7.75A7.75,7.75,0,1,1,7.75,15.5,7.758,7.758,0,0,1,15.5,7.75Zm0,2.583A5.167,5.167,0,1,0,20.667,15.5,5.167,5.167,0,0,0,15.5,10.333Z" transform="translate(0 31) rotate(-90)" fill="#3f964f"/>
</svg>
