<svg xmlns="http://www.w3.org/2000/svg" width="28.546" height="28.483" viewBox="0 0 28.546 28.483">
  <g id="Instagram" transform="translate(-1582.727 -6545.855)">
    <path id="XMLID_802_" d="M11.118,99.73H5.387a.46.46,0,0,0-.46.46V118.6a.46.46,0,0,0,.46.46h5.731a.46.46,0,0,0,.46-.46V100.19A.46.46,0,0,0,11.118,99.73Z" transform="translate(1578.254 6455.278)" fill="#3f964f"/>
    <g id="Group_2392" data-name="Group 2392">
      <path id="XMLID_803_" d="M3.781.341A3.778,3.778,0,1,0,7.56,4.118,3.784,3.784,0,0,0,3.781.341Z" transform="translate(1582.727 6545.515)" fill="#3f964f"/>
      <path id="XMLID_804_" d="M117.62,94.761a6.731,6.731,0,0,0-5.035,2.114v-1.2a.46.46,0,0,0-.46-.46h-5.488a.46.46,0,0,0-.46.46v18.41a.46.46,0,0,0,.46.46h5.718a.46.46,0,0,0,.46-.46V104.98c0-3.069.834-4.265,2.973-4.265,2.33,0,2.515,1.917,2.515,4.423v8.951a.46.46,0,0,0,.46.46h5.72a.46.46,0,0,0,.46-.46v-10.1C124.945,99.427,124.074,94.761,117.62,94.761Z" transform="translate(1486.328 6459.789)" fill="#3f964f"/>
    </g>
  </g>
</svg>
