<svg xmlns="http://www.w3.org/2000/svg" width="39.333" height="35.053" viewBox="0 0 39.333 35.053">
  <path id="Payment" d="M40.333,34.783h0a4.275,4.275,0,0,1-4.275,4.275H5.275A4.275,4.275,0,0,1,1,34.783V9.986a3.42,3.42,0,0,1,3.42-3.42H21.668l6.925-2.509a.847.847,0,0,1,1.084.5l.729,2.005h3.086a3.42,3.42,0,0,1,3.42,3.42V11.7h0a3.42,3.42,0,0,1,3.42,3.42ZM4.42,8.276h0a1.71,1.71,0,1,0,0,3.42H7.528c.011,0,.018-.014.029-.018l9.39-3.4Zm24.864.155-.908-2.5h0l-1.754.635h0l-4.715,1.71H21.9L12.461,11.7H30.471ZM35.2,9.986a1.711,1.711,0,0,0-1.71-1.71H31.027l1.243,3.42H35.2Zm1.71,3.42H4.42a3.382,3.382,0,0,1-1.71-.475V34.783a2.566,2.566,0,0,0,2.565,2.565H36.058a2.565,2.565,0,0,0,2.565-2.565V28.8H35.2a3.42,3.42,0,1,1,0-6.841h3.42V15.117A1.711,1.711,0,0,0,36.913,13.407Zm1.71,13.681v-3.42H35.2a1.71,1.71,0,1,0,0,3.42ZM35.2,24.522h1.71v1.71H35.2Z" transform="translate(-1 -4.006)" fill-rule="evenodd"/>
</svg>
