<svg xmlns="http://www.w3.org/2000/svg" width="28.533" height="28.66" viewBox="0 0 28.533 28.66">
  <g id="Phone" transform="translate(0.448 0.213)">
    <rect id="Rectangle_933" data-name="Rectangle 933" width="28" height="28" fill="none"/>
    <path id="Path_1016" data-name="Path 1016" d="M17.15,19.933s2.238-1.281,2.824-1.589a1.679,1.679,0,0,1,1.557-.163c.557.341,5.231,3.45,5.624,3.725a1.332,1.332,0,0,1,.042,1.835c-.539.772-3.025,3.823-4.079,3.79S17.676,27.4,9.4,19.126,1.033,6.465,1,5.41,4.017,1.868,4.789,1.329a1.349,1.349,0,0,1,1.836.043C6.936,1.8,10.01,6.463,10.348,7a1.661,1.661,0,0,1-.163,1.558C9.878,9.141,8.6,11.379,8.6,11.379a27.447,27.447,0,0,0,3.958,4.595A27.577,27.577,0,0,0,17.15,19.933Z" transform="translate(-0.447 -0.085)" fill="none" stroke="#3f964f" stroke-miterlimit="10" stroke-width="2"/>
  </g>
</svg>
