<svg xmlns="http://www.w3.org/2000/svg" width="27.374" height="46.637" viewBox="0 0 27.374 46.637">
  <g id="Place_order" data-name="Place order" transform="translate(-23.605 -5.03)">
    <path id="Path_2388" data-name="Path 2388" d="M48.476,5.03H26.108a2.506,2.506,0,0,0-2.5,2.5V49.165a2.506,2.506,0,0,0,2.5,2.5H48.476a2.506,2.506,0,0,0,2.5-2.5V7.533A2.507,2.507,0,0,0,48.476,5.03Zm1.489,44.135a1.491,1.491,0,0,1-1.489,1.489H26.108a1.491,1.491,0,0,1-1.489-1.489V7.533a1.491,1.491,0,0,1,1.489-1.489H48.476a1.491,1.491,0,0,1,1.489,1.489V49.165Z" transform="translate(0 0)" fill="#fff"/>
    <path id="Path_2389" data-name="Path 2389" d="M49.719,9.312h-4.6a2.418,2.418,0,0,0-2.2,1.421,1.4,1.4,0,0,1-1.277.824H36.823a1.4,1.4,0,0,1-1.277-.824,2.418,2.418,0,0,0-2.2-1.421H28.737a1.106,1.106,0,0,0-1.105,1.105V50.4a1.111,1.111,0,0,0,1.11,1.11H49.724A1.106,1.106,0,0,0,50.829,50.4V10.422A1.111,1.111,0,0,0,49.719,9.312Zm.1,41.092a.093.093,0,0,1-.091.091H28.742a.1.1,0,0,1-.1-.1V10.417a.093.093,0,0,1,.091-.091h4.608a1.4,1.4,0,0,1,1.277.825,2.419,2.419,0,0,0,2.2,1.421h4.815a2.419,2.419,0,0,0,2.2-1.421,1.4,1.4,0,0,1,1.277-.824h4.6a.1.1,0,0,1,.1.1V50.4Z" transform="translate(-1.939 -2.062)" fill="#fff"/>
    <path id="Path_2390" data-name="Path 2390" d="M50.6,29.892c0-.011-.006-.022-.011-.033s0-.01-.005-.016l-1.558-3.193V24.684a2.872,2.872,0,0,0-2.869-2.869h-8.91a2.872,2.872,0,0,0-2.869,2.869v1.967l-1.559,3.194c0,.005,0,.01-.005.016s-.007.022-.011.033a.506.506,0,0,0-.031.153c0,.007,0,.013,0,.021v8.208a2.654,2.654,0,0,0,2.651,2.651H47.988a2.654,2.654,0,0,0,2.651-2.651V30.067c0-.007,0-.013,0-.021A.493.493,0,0,0,50.6,29.892ZM35.4,24.685a1.857,1.857,0,0,1,1.855-1.855h8.91a1.857,1.857,0,0,1,1.855,1.855v1.587h-.707V24.859a1.48,1.48,0,0,0-1.479-1.478H37.581A1.481,1.481,0,0,0,36.1,24.859v1.412H35.4V24.685Zm10.9,1.586H37.116V24.859a.465.465,0,0,1,.465-.465h8.248a.465.465,0,0,1,.465.465v1.412ZM35.2,27.285h13.01l1.11,2.275H34.09Zm14.424,10.99a1.639,1.639,0,0,1-1.637,1.637H35.423a1.639,1.639,0,0,1-1.637-1.637v-7.7H49.625Z" transform="translate(-4.414 -8.081)" fill="#fff"/>
    <path id="Path_2391" data-name="Path 2391" d="M49.016,65.719H37.383a1.509,1.509,0,0,0-1.507,1.507v3.449a1.509,1.509,0,0,0,1.507,1.507H49.016a1.509,1.509,0,0,0,1.507-1.507V67.226A1.509,1.509,0,0,0,49.016,65.719Zm.493,4.956a.494.494,0,0,1-.493.493H37.383a.494.494,0,0,1-.493-.493V67.226a.494.494,0,0,1,.493-.494H49.016a.494.494,0,0,1,.493.494v3.449Z" transform="translate(-5.908 -29.219)" fill="#fff"/>
    <path id="Path_2392" data-name="Path 2392" d="M50.218,70.214a.5.5,0,0,0-.05-.213.43.43,0,0,0-.036-.053.5.5,0,0,0-.1-.116c-.008-.007-.011-.018-.02-.024L48.2,68.444a.507.507,0,0,0-.609.811l.6.452h-3.55a.507.507,0,0,0,0,1.014h3.55l-.6.452a.507.507,0,1,0,.609.81l1.816-1.364c.009-.006.012-.017.02-.024a.484.484,0,0,0,.1-.116.526.526,0,0,0,.036-.053A.5.5,0,0,0,50.218,70.214Z" transform="translate(-9.884 -30.482)" fill="#fff"/>
  </g>
</svg>
