<svg xmlns="http://www.w3.org/2000/svg" width="131.624" height="113.243" viewBox="0 0 131.624 113.243">
  <g id="Retail_Store_Moves" data-name="Retail Store Moves" transform="translate(-255 -2137.512)">
    <path id="Path_2139" data-name="Path 2139" d="M135.117,216.912,119.692,209.2l-15.425,7.712L88.843,209.2l-15.425,7.712L57.993,209.2l-15.425,7.712L31,211.128v72.059h69.411V263.649H54.137V240.512h69.411v42.675h23.137V211.128Z" transform="translate(231.969 1963.712)" fill="#fff7e6"/>
    <path id="Path_2140" data-name="Path 2140" d="M256,421h11.569v19.538H256Z" transform="translate(64.812 1806.361)" fill="#ffeacc"/>
    <path id="Path_2141" data-name="Path 2141" d="M290.706,240.512v42.675h23.137V211.128l-11.569,5.784L286.849,209.2l-15.425,7.712L256,209.2v31.312Z" transform="translate(64.812 1963.712)" fill="#ffdc73" opacity="0.29"/>
    <path id="Path_2144" data-name="Path 2144" d="M144.986,339.562H91V301h46.274a7.712,7.712,0,0,1,7.712,7.712Z" transform="translate(187.394 1895.512)"/>
    <path id="Path_2145" data-name="Path 2145" d="M35.706,139.211l7.712,10.451-7.712,10.45-15.425,7.712L1,158.184V139.211L18.353,131.5Z" transform="translate(254.257 2021.438)" fill="#eb8d00"/>
    <path id="Path_2146" data-name="Path 2146" d="M43.726,71.5l3.7,11.569L35.706,94.636H1L16.425,71.5Z" transform="translate(254.257 2066.013)" fill="#fdcb02"/>
    <path id="Path_2147" data-name="Path 2147" d="M166.849,139.211l7.712,10.451-7.712,10.45-15.425,7.712L136,160.112v-20.9l15.425-7.712Z" transform="translate(153.963 2021.438)" fill="#fdcb02"/>
    <path id="Path_2148" data-name="Path 2148" d="M286.849,139.211l7.712,10.451-7.712,10.45-15.425,7.712L256,160.112v-20.9l15.425-7.712Z" transform="translate(64.812 2021.438)" fill="#eb8d00"/>
    <path id="Path_2149" data-name="Path 2149" d="M410.706,139.211v18.973l-19.281,9.64L376,160.112v-20.9l17.353-7.712Z" transform="translate(-24.339 2021.438)" fill="#fdcb02"/>
    <path id="Path_2150" data-name="Path 2150" d="M166.849,71.5l7.712,11.569-7.712,11.569H136L144.021,71.5Z" transform="translate(153.963 2066.013)" fill="#eb8d00"/>
    <path id="Path_2151" data-name="Path 2151" d="M286.849,94.636H256V71.5h22.829l11.739,11.616Z" transform="translate(64.812 2066.013)" fill="#fdcb02"/>
    <path id="Path_2152" data-name="Path 2152" d="M387.527,94.636H352.822L344.8,71.5h27.3Z" transform="translate(-1.16 2066.013)" fill="#eb8d00"/>
    <path id="Path_2153" data-name="Path 2153" d="M215.281,301H196v38.562h26.993V308.712A7.712,7.712,0,0,0,215.281,301Z" transform="translate(109.387 1895.512)" fill="#2d3031"/>
    <path id="Path_2154" data-name="Path 2154" d="M309.562,331.849V301H271v50.387h38.562V339.562l-7.712-3.856Z" transform="translate(53.668 1895.512)" fill="#8076f2"/>
    <path id="Path_2155" data-name="Path 2155" d="M361,421h15.425v7.712H361Z" transform="translate(-13.195 1806.361)" fill="#263238"/>
    <path id="Path_2156" data-name="Path 2156" d="M0,482H131.624v7.712H0Z" transform="translate(255 1761.043)" fill="#eb8d00"/>
    <path id="Path_2157" data-name="Path 2157" d="M256,482h65.812v7.712H256Z" transform="translate(64.812 1761.043)" fill="#fcc143"/>
  </g>
</svg>
