<svg id="Vehicle" xmlns="http://www.w3.org/2000/svg" width="95.866" height="83.083" viewBox="0 0 95.866 83.083">
  <path id="truck" d="M63.91,89.486a1.6,1.6,0,0,1-1.6,1.6h-3.2a1.6,1.6,0,1,1,0-3.2h3.2a1.6,1.6,0,0,1,1.6,1.6m31.955,0a1.6,1.6,0,0,1-1.6,1.6H68.7a1.6,1.6,0,1,1,0-3.2H94.268a1.6,1.6,0,0,1,1.6,1.6m-44.737,0a1.6,1.6,0,0,1-1.6,1.6H33.553a1.6,1.6,0,1,1,0-3.2H49.531a1.6,1.6,0,0,1,1.6,1.6m-25.564,0a1.6,1.6,0,0,1-1.6,1.6H1.6a1.6,1.6,0,1,1,0-3.2H23.966a1.6,1.6,0,0,1,1.6,1.6M3.2,57.531a1.6,1.6,0,0,1,1.6-1.6H9.331l-.676-4.558a1.6,1.6,0,0,1,3.162-.47l.746,5.028h11.4a1.6,1.6,0,0,1,0,3.2H4.793a1.6,1.6,0,0,1-1.6-1.6m1.6-14.38H7.284l-.676-4.558a1.6,1.6,0,1,1,3.16-.47l.748,5.028h13.45a1.6,1.6,0,1,1,0,3.2H4.793a1.6,1.6,0,1,1,0-3.2M23.966,75.106a1.6,1.6,0,1,1,1.6-1.6,1.6,1.6,0,0,1-1.6,1.6m0-6.391a4.793,4.793,0,1,0,4.793,4.793,4.8,4.8,0,0,0-4.793-4.793M78.29,75.106a1.6,1.6,0,1,1,1.6-1.6,1.6,1.6,0,0,1-1.6,1.6m0-6.391a4.793,4.793,0,1,0,4.793,4.793,4.8,4.8,0,0,0-4.793-4.793m0,12.782a7.989,7.989,0,1,1,7.989-7.989A8,8,0,0,1,78.29,81.5M93.8,48.412,89.42,44.033,87.877,25.575a8,8,0,0,0-7.989-7.989H68.7a1.6,1.6,0,0,0,0,3.2H79.888a4.894,4.894,0,0,1,4.8,4.926L86.14,43.151H80.875l2.04-4.079a1.6,1.6,0,1,0-2.86-1.428L77.3,43.151H68.7a1.6,1.6,0,0,0,0,3.2H87.215l4.325,4.325c.911.911,1.126,3.005,1.13,3.664V71.91H89.347a11.184,11.184,0,1,0,0,3.2h4.921a1.6,1.6,0,0,0,1.6-1.6V54.335c0-.395-.058-3.916-2.066-5.923M23.966,81.5a7.989,7.989,0,1,1,7.989-7.989A8,8,0,0,1,23.966,81.5M62.313,8H11.184A8,8,0,0,0,3.2,15.989a1.665,1.665,0,0,0,.018.236L5.335,30.369H1.6a1.6,1.6,0,1,0,0,3.2H23.966a1.6,1.6,0,1,0,0-3.2H8.566L6.393,15.879A4.8,4.8,0,0,1,11.184,11.2H60.715V71.91H35.023a11.184,11.184,0,1,0,0,3.2h27.29a1.6,1.6,0,0,0,1.6-1.6V9.6a1.6,1.6,0,0,0-1.6-1.6" transform="translate(0 -8)" fill="#3f964f" fill-rule="evenodd"/>
</svg>
