<svg xmlns="http://www.w3.org/2000/svg" width="770.561" height="546.419" viewBox="0 0 770.561 546.419">
  <g id="About_us" data-name="About us" transform="translate(0.002 0.003)">
    <g id="Layer_1" data-name="Layer 1" transform="translate(-0.002 -0.003)">
      <path id="Path_2484" data-name="Path 2484" d="M362.585,99.5C334.724-1.51,209.185-34.072,137.25,41.457q-1.553,1.621-3.1,3.311C31.012,156.882,79.735,433.187,294.982,503.2s439.192-57.85,451.725-172.16S659.975,180.806,505.863,212.733C418.8,230.833,379.921,162.449,362.585,99.5Z" transform="translate(-11.684 0.003)" fill="#e6ffe8"/>
      <path id="Path_2485" data-name="Path 2485" d="M510.279,104.669c-28.8,4.692-36.782,30.212-14.54,48.311,7.343,6,17.842,10.954,32.794,13.433,56.966,9.436,87.2-15.749,64.335-48.431C578.8,97.815,538.818,100.028,510.279,104.669Z" transform="translate(-68.675 -14.435)" fill="#e6ffe8"/>
      <path id="Path_2486" data-name="Path 2486" d="M742.2,190.548c13.845,2.891,23.872-8.415,18.743-21.5-1.716-4.289-5.035-8.715-10.963-12.67-22.586-15.072-42.3-7.969-40.634,12.507C710.364,181.5,728.481,187.683,742.2,190.548Z" transform="translate(-100.855 -21.088)" fill="#e6ffe8"/>
      <path id="Path_2487" data-name="Path 2487" d="M94.345,368.94c-14.145-25.562-40.857-24.456-50.378,2.573-3.148,8.938-4.289,20.493-1.57,35.41,10.354,56.8,44.28,76.739,67.32,44.211C123.939,431.079,108.361,394.193,94.345,368.94Z" transform="translate(-5.81 -49.837)" fill="#19b22f"/>
      <path id="Path_2488" data-name="Path 2488" d="M162.2,563.332l-5.507-.223-2.925-.12-8.286-.326S68.932,432.7,116.891,390.314c14.763-13.047,40.574-2.222,34.869,57.738C146.477,503.647,162.2,563.332,162.2,563.332Z" transform="translate(-14.375 -54.802)" fill="#19b22f"/>
      <path id="Path_2489" data-name="Path 2489" d="M160.846,569.462l-2.925-.12c-13.364-31.481-20.115-65.313-23.461-89.057a410.235,410.235,0,0,1-4.16-48.894,1.321,1.321,0,0,1,2.642,0,409.372,409.372,0,0,0,4.143,48.56C140.456,503.823,147.276,537.921,160.846,569.462Z" transform="translate(-18.528 -61.155)" fill="#fff"/>
      <path id="Path_2490" data-name="Path 2490" d="M163.033,586.55l-7.48,2.779-3.98,1.475-11.246,4.169s-174.716-131-134.245-214.355c12.455-25.665,52.978-25.588,78.763,57.721C108.751,515.567,163.033,586.55,163.033,586.55Z" transform="translate(0.002 -51.985)" fill="#3f964f"/>
      <path id="Path_2491" data-name="Path 2491" d="M161.793,598.213l-3.98,1.475c-35.4-34.629-63.22-76.069-80.967-105.929C55.821,458.3,44.172,431.045,44.061,430.779a1.913,1.913,0,1,1,3.517-1.5c.12.275,11.692,27.329,32.6,62.576C97.973,521.86,126.083,563.635,161.793,598.213Z" transform="translate(-6.239 -60.869)" fill="#fff"/>
      <path id="Path_2492" data-name="Path 2492" d="M796.98,598.466A14.514,14.514,0,0,0,810,594.434c2.162-2.29,3.62-5.1,3.62-7.806v-.112c-.06-19.378,23.744-18.091,31.387-41.775s-22.56-25.682-39.8-11.057c-12.4,10.517-27.287-4.177-45.309,8.089-15.655,10.645-6.931,36.885-32.6,28.659-8.2-2.573-15.543-.094-21.737,4.555a36.765,36.765,0,0,0-13.725,21l2.042,1.45C744.517,628.472,767.335,593.542,796.98,598.466Z" transform="translate(-98.38 -74.573)" fill="#3f964f"/>
      <path id="Path_2493" data-name="Path 2493" d="M754.733,601.806l67.123-43.1a1.933,1.933,0,1,0-2.093-3.251L747.57,601.78Z" transform="translate(-106.305 -78.942)" fill="#fff"/>
      <path id="Path_2494" data-name="Path 2494" d="M751.314,427.6c-2.831-42.229-3.3-86.526-.154-115.888,4.1-38.361,13.39-65.073,27.612-79.372a2.426,2.426,0,1,1,3.431,3.431c-24.876,25-33.789,92.153-25.888,194.308Z" transform="translate(-106.507 -32.936)" fill="#3f964f"/>
      <path id="Path_2495" data-name="Path 2495" d="M755.983,279.577s-20.235,0-18.786-35.607C737.2,244,768.156,252.805,755.983,279.577Z" transform="translate(-104.82 -34.691)" fill="#19b22f"/>
      <path id="Path_2496" data-name="Path 2496" d="M757.129,303.372s-1.089-20.2,34.509-20.742C791.639,282.63,784.536,314.034,757.129,303.372Z" transform="translate(-107.664 -40.188)" fill="#19b22f"/>
      <path id="Path_2497" data-name="Path 2497" d="M775.042,243.492s-7.72-18.683,25.614-31.052C800.63,212.44,804.438,244.41,775.042,243.492Z" transform="translate(-110.102 -30.207)" fill="#19b22f"/>
      <path id="Path_2498" data-name="Path 2498" d="M746.9,345.1s-19.052,6.819-29.723-27.149C717.18,317.99,749.3,315.794,746.9,345.1Z" transform="translate(-101.984 -45.208)" fill="#19b22f"/>
      <path id="Path_2499" data-name="Path 2499" d="M753.077,367.274s-4.572-19.729,30.4-26.394C783.478,340.88,781.917,373.039,753.077,367.274Z" transform="translate(-107.06 -48.472)" fill="#19b22f"/>
      <path id="Path_2500" data-name="Path 2500" d="M746.857,397.58s-18.923,7.18-30.237-26.592C716.62,370.989,748.684,368.235,746.857,397.58Z" transform="translate(-101.904 -52.743)" fill="#19b22f"/>
      <path id="Path_2501" data-name="Path 2501" d="M765.371,575.363a49.2,49.2,0,0,0-1.1-9.093c-6.279-28.753,10.8-34.183,33.334-43.259s25.2-36.027,9.256-58.476,12.7-40.437,2.153-74.174-47.179-11.3-55.234,19.807c-5.764,22.363-35.067,17.525-45.926,46.527-9.436,25.176,22.174,48.431-14.317,59.977-11.657,3.68-18.108,12.627-21.445,23.092a52.2,52.2,0,0,0,1.313,35.6Z" transform="translate(-95.215 -53.117)" fill="#19b22f"/>
      <path id="Path_2502" data-name="Path 2502" d="M728.237,583.581l60.106-148.4a2.745,2.745,0,1,0-5.087-2.059L722.31,583.581Z" transform="translate(-102.713 -61.334)" fill="#fff"/>
      <path id="Path_2503" data-name="Path 2503" d="M447.6,595.218h65.133c-.24-5.087-.48-9.95-.712-14.514-1.132-22.3-2.1-37.494-2.1-37.494L456.921,545.6l-4.392.2-7.789.352s.755,13.579,1.921,33.454C446.945,584.453,447.262,589.7,447.6,595.218Z" transform="translate(-63.242 -77.244)" fill="#9c78ed"/>
      <path id="Path_2504" data-name="Path 2504" d="M452.529,545.753l-7.789.352s.755,13.579,1.921,33.454A473.335,473.335,0,0,0,512,580.674c-1.132-22.3-2.1-37.494-2.1-37.494L456.921,545.6Z" transform="translate(-63.242 -77.239)" fill="#7846d1"/>
      <path id="Path_2505" data-name="Path 2505" d="M461.008,595.609c-1.235-21.325-2.247-39.613-2.8-49.649l-4.392.2c.549,9.993,1.553,28.2,2.788,49.452Z" transform="translate(-64.533 -77.635)" fill="#7846d1"/>
      <path id="Path_2506" data-name="Path 2506" d="M412.38,561.977c1.012.077,2.016.137,3.011.189l1.055-7.171a1.6,1.6,0,0,0-1.252-1.827,1.518,1.518,0,0,0-1.716,1.338Z" transform="translate(-58.64 -78.658)" fill="#d88500"/>
      <path id="Path_2507" data-name="Path 2507" d="M398.008,535.627a1.612,1.612,0,0,0,.626-1.072l1.844-12.6a1.6,1.6,0,0,0-1.252-1.836,1.518,1.518,0,0,0-1.716,1.338l-1.844,12.61a1.587,1.587,0,0,0,1.244,1.836,1.45,1.45,0,0,0,1.1-.275Z" transform="translate(-56.26 -73.958)" fill="#d88500"/>
      <path id="Path_2508" data-name="Path 2508" d="M488,526.228a1.664,1.664,0,0,0,.163.721,1.458,1.458,0,0,0,2.033.686l10.585-5.867a1.715,1.715,0,0,0,.643-2.17,1.467,1.467,0,0,0-2.024-.686l-10.542,5.867A1.63,1.63,0,0,0,488,526.228Z" transform="translate(-69.394 -73.764)" fill="#d88500"/>
      <path id="Path_2509" data-name="Path 2509" d="M521.55,535.208a1.716,1.716,0,0,0,.163.729,1.45,1.45,0,0,0,2.024.678l4.606-2.573V530.43l-6,3.311a1.613,1.613,0,0,0-.789,1.467Z" transform="translate(-74.164 -75.426)" fill="#d88500"/>
      <path id="Path_2510" data-name="Path 2510" d="M469.655,552.131l3.62,8.269c.661-.069,1.312-.146,1.982-.232l1.184-.137-4.066-9.264a1.45,1.45,0,0,0-2-.772A1.647,1.647,0,0,0,469.655,552.131Z" transform="translate(-66.764 -78.187)" fill="#d88500"/>
      <path id="Path_2511" data-name="Path 2511" d="M426.836,511.023a1.476,1.476,0,0,0,1.089-.489l8.278-9.2a1.716,1.716,0,0,0-.043-2.273,1.441,1.441,0,0,0-2.127.051l-8.261,9.2a1.716,1.716,0,0,0,.043,2.273,1.441,1.441,0,0,0,1.021.446Z" transform="translate(-60.486 -70.902)" fill="#d88500"/>
      <path id="Path_2512" data-name="Path 2512" d="M408.583,495.655a1.647,1.647,0,0,0,.317-1.209l-1.484-12.678a1.527,1.527,0,0,0-1.716-1.39,1.587,1.587,0,0,0-1.3,1.793l1.493,12.652a1.527,1.527,0,0,0,1.716,1.4A1.493,1.493,0,0,0,408.583,495.655Z" transform="translate(-57.503 -68.307)" fill="#d88500"/>
      <path id="Path_2513" data-name="Path 2513" d="M445.522,537.709a1.424,1.424,0,0,0,1.081-.5l8.261-9.2a1.716,1.716,0,0,0-.043-2.273,1.441,1.441,0,0,0-2.127,0l-8.261,9.247a1.716,1.716,0,0,0,.043,2.273,1.449,1.449,0,0,0,1.046.446Z" transform="translate(-63.14 -74.693)" fill="#d88500"/>
      <path id="Path_2514" data-name="Path 2514" d="M423.08,448.086a1.638,1.638,0,0,0,.532,1.124l9.127,8.209a1.441,1.441,0,0,0,2.119-.2,1.716,1.716,0,0,0-.189-2.265l-9.084-8.209a1.441,1.441,0,0,0-2.119.2A1.716,1.716,0,0,0,423.08,448.086Z" transform="translate(-60.162 -63.473)" fill="#d88500"/>
      <path id="Path_2515" data-name="Path 2515" d="M393.075,462.724a1.716,1.716,0,0,0,.257-1.793l-5.147-11.512a1.458,1.458,0,0,0-2-.755,1.638,1.638,0,0,0-.712,2.136l5.147,11.512a1.458,1.458,0,0,0,2,.763,1.845,1.845,0,0,0,.455-.352Z" transform="translate(-54.792 -63.777)" fill="#d88500"/>
      <path id="Path_2516" data-name="Path 2516" d="M520.257,372.111C502.587,384.8,474.949,393.5,474.949,393.5l-5.661-20.356-4.418-15.886-3.122-11.194H430.06c1.716,5.936,3.491,12.009,5.267,17.971,2.29,7.72,4.572,15.252,6.734,22.208,3.062,9.787,5.884,18.4,8.149,24.55.532,1.433,1.149,3,1.844,4.666,4.238,11.443,7.652,23.847,23.812,16.058,14.231-6.862,33.523-16.35,43.164-22.654Z" transform="translate(-61.154 -49.208)" fill="#ffa681"/>
      <path id="Path_2517" data-name="Path 2517" d="M428.272,237.47s33.051,78.814,47.265,104.351c0,0-19.918,16.941-39.321,17.4C436.215,359.226,425.03,272.683,428.272,237.47Z" transform="translate(-60.816 -33.767)" fill="#e2a02b"/>
      <path id="Path_2518" data-name="Path 2518" d="M327.365,602.223c.335-5.516.643-10.765.935-15.629,1.167-19.9,1.921-33.454,1.921-33.454l-7.789-.352-4.392-.2-52.978-2.35s-.969,15.192-2.1,37.494c-.232,4.563-.472,9.436-.712,14.514Z" transform="translate(-37.291 -78.243)" fill="#333533"/>
      <path id="Path_2519" data-name="Path 2519" d="M322.551,552.753l7.789.352s-.755,13.579-1.921,33.454a473.361,473.361,0,0,1-65.338,1.115c1.132-22.3,2.1-37.494,2.1-37.494l52.978,2.419Z" transform="translate(-37.409 -78.235)" fill="#333533"/>
      <path id="Path_2520" data-name="Path 2520" d="M328.431,602.609c1.235-21.248,2.239-39.459,2.788-49.452l-4.392-.2c-.549,10.036-1.561,28.307-2.8,49.649Z" transform="translate(-46.077 -78.63)" fill="#333533"/>
      <path id="Path_2521" data-name="Path 2521" d="M252.12,462.7v3.234c0,19.369.12,34.389.214,41.758a309.5,309.5,0,0,0,56.151,9.856l2.573.2,1.364.086c1,.069,2.016.137,3.011.18s2.23.129,3.354.189A300.752,300.752,0,0,0,357,517.512q3.86-.322,7.72-.746l.5-.043,1.964-.232,1.192-.146a312.9,312.9,0,0,0,44.451-8.655c0-3.345.051-8.312.051-14.583V489.5h0c0-8.947-.069-20.09-.163-32.682v-3.26c-.069-8.389-.154-17.37-.266-26.729,0-1.089,0-2.17-.043-3.26-.12-9.607-.266-19.584-.429-29.714-.1-6.185-.214-12.421-.343-18.674s-.266-12.661-.42-18.957q0-2.059-.1-4.117c-1.45-59.54-3.954-114.267-8.106-120.375-2.882-4.22-9.436-9.187-17.233-14.188l-2.891-1.836c-3.311-2.067-30.289-11.229-33.711-13.244l-28.522-1.99c-.172.1-27.449,9.3-27.612,9.436L289.5,211.93c-10.1,5.824-20.055,12.009-25.794,17.25a25.929,25.929,0,0,0-2.222,2.247,13.969,13.969,0,0,0-1.33,1.716,9.188,9.188,0,0,0-1,2.5c-3.431,12.541-5.258,61.8-6.159,115.408-.06,3.843-.12,7.72-.172,11.58l-.077,5.147v5.284c-.043,2.917-.069,5.824-.094,8.715q0,3.217-.069,6.416C252.18,415.117,252.1,441.339,252.12,462.7Z" transform="translate(-35.85 -28.505)" fill="#e2a02b"/>
      <path id="Path_2522" data-name="Path 2522" d="M191.829,548.147c-.7,7.609,8.578,3.483,5.945-11.94s4.812-29.388,8.02-28.942-2.659,16.839.2,22.749,6.528-5.567,10.191-12.532c3.8-7.223,3.577-23,1.853-34.252s18.674-79.629,18.777-99.444l2.47-8.424,9.1-30.761,14.265-48.157s-8.535-36.456-22.929-33.325c0,0-7.617,25.391-15.766,54.041-1.381,4.855-2.771,9.813-4.152,14.754-5.8,20.767-11.254,41.26-13.785,53.424-6.7,32.107-7.214,98.853-7.214,98.853s-11.846,24.542-12.095,35.453C186.417,531.283,192.524,540.53,191.829,548.147Z" transform="translate(-26.548 -37.387)" fill="#ffa681"/>
      <path id="Path_2523" data-name="Path 2523" d="M225.29,340.92l19.481,43.43,9.1-30.761-24.439-27.45C228.061,331.021,226.671,335.979,225.29,340.92Z" transform="translate(-32.035 -46.376)" fill="#f97853"/>
      <path id="Path_2524" data-name="Path 2524" d="M224.16,315.468q12.867,21.99,25.914,43.851c2.848-9.556,5.807-18.726,8.578-27.158v-.06c1.107-3.371,2.2-6.622,3.225-9.736a.86.86,0,0,1,.06-.154c.36-1.1.712-2.17,1.064-3.225h0c4.143-12.5,7.343-22.44,8.261-28.23,2.47-15.6-4.289-46.158-13.725-52.18h0c-.249.549-1-1.149-1.441-.112-1.664,3.852-9.058,13.356-12.721,22.62-.472,1.175-.944,2.4-1.441,3.654C236.632,278.333,230.156,296.064,224.16,315.468Z" transform="translate(-31.875 -33.859)" fill="#e2a02b"/>
      <path id="Path_2525" data-name="Path 2525" d="M343.742,231.086c12.344,0,21.05-11.271,21.445-11.752a1.656,1.656,0,0,0-.214-2.239,1.415,1.415,0,0,0-2.093.232c-.112.146-8.218,10.568-19.1,10.568S326.449,216.1,326.389,215.98a1.45,1.45,0,0,0-2.042-.575,1.664,1.664,0,0,0-.54,2.179C324.072,218.133,331.244,231.086,343.742,231.086Z" transform="translate(-46.016 -30.599)" fill="#d88500"/>
      <path id="Path_2526" data-name="Path 2526" d="M301.853,115.7s-10.465-11.537-6.511-24.953,14.746-13.27,14.746-13.27,6.279-14.231,17.044-14.7,20.853-19.541,30.623-14.36-1.072,16.478-1.072,16.478,16.753-17.653,22.3-12.481-7.72,19.069-7.72,19.069,14.059-9.882,18.683-6.116-10.963,20-10.963,20,10.122,18.245-.069,26.42Z" transform="translate(-41.87 -6.755)"/>
      <path id="Path_2527" data-name="Path 2527" d="M387.883,130.8s6.691-8.921,11.666-1.544-2.059,29.165-14.239,23.847Z" transform="translate(-54.791 -17.963)" fill="#f97853"/>
      <path id="Path_2528" data-name="Path 2528" d="M388.24,147.664a1.038,1.038,0,0,0,1-.755c1.887-6.725,8.852-9.436,8.93-9.479a1.038,1.038,0,0,0,.592-1.33,1.021,1.021,0,0,0-1.321-.592c-.326.12-8.012,3.1-10.182,10.851a1.029,1.029,0,0,0,.712,1.27A1.045,1.045,0,0,0,388.24,147.664Z" transform="translate(-55.062 -19.258)" fill="#ea5143"/>
      <path id="Path_2529" data-name="Path 2529" d="M395.871,144.945a1,1,0,0,0,.558-.163,1.029,1.029,0,0,0,.309-1.424,9.324,9.324,0,0,0-3.86-3.114,1.033,1.033,0,1,0-.858,1.879,7.557,7.557,0,0,1,2.977,2.35A1,1,0,0,0,395.871,144.945Z" transform="translate(-55.659 -19.928)" fill="#ea5143"/>
      <path id="Path_2530" data-name="Path 2530" d="M305.719,130.8s-6.691-8.921-11.666-1.544,2.059,29.165,14.239,23.847Z" transform="translate(-41.584 -17.963)" fill="#f97853"/>
      <path id="Path_2531" data-name="Path 2531" d="M306.066,147.664a1.029,1.029,0,0,1-.986-.755c-1.887-6.725-8.861-9.436-8.93-9.479a1.028,1.028,0,1,1,.729-1.921c.326.12,8,3.1,10.182,10.851a1.038,1.038,0,0,1-.712,1.27A1.063,1.063,0,0,1,306.066,147.664Z" transform="translate(-42.017 -19.258)" fill="#ea5143"/>
      <path id="Path_2532" data-name="Path 2532" d="M299.451,144.945a1.029,1.029,0,0,1-.858-1.587,9.436,9.436,0,0,1,3.869-3.114,1.033,1.033,0,0,1,.858,1.879,7.394,7.394,0,0,0-2.977,2.35,1.029,1.029,0,0,1-.892.472Z" transform="translate(-42.436 -19.928)" fill="#ea5143"/>
      <path id="Path_2533" data-name="Path 2533" d="M328.92,179.09v21.668s6.459,11.031,15.2,11.786,16.487-9.513,16.487-9.513V180.608Z" transform="translate(-46.772 -25.465)" fill="#ffa681"/>
      <path id="Path_2534" data-name="Path 2534" d="M328.92,179.09v9.616c5.859,6.5,16.3,8.132,31.687,5.85V180.608Z" transform="translate(-46.772 -25.465)" fill="#f97853"/>
      <path id="Path_2535" data-name="Path 2535" d="M302.285,109.691a208.347,208.347,0,0,0,2.8,27.372h0a.441.441,0,0,0,0,.077h0c.395,2.05.858,3.989,1.321,5.73.292,1.012.609,2.084.969,3.174,5.147,16.118,17.036,39.459,46.939,28.771,12.6-4.495,19.155-17.5,22.5-31.61.189-.858.377-1.716.54-2.47.112-.54.223-1.055.317-1.561l.146-.755a1.825,1.825,0,0,0,.043-.275.24.24,0,0,0,0-.051,153.921,153.921,0,0,0,2.127-29.654,22.612,22.612,0,0,0-11.477-19.249c-18.872-10.688-38.73-6.7-51.828-1.664a22.517,22.517,0,0,0-14.4,22.166Z" transform="translate(-42.98 -11.719)" fill="#ffa681"/>
      <path id="Path_2536" data-name="Path 2536" d="M305.544,146.065h0a.444.444,0,0,0,0,.077h0c.189.7,1.244,4.563,2.29,8.9,5.147,16.118,17.036,39.459,46.939,28.771,12.6-4.495,19.155-17.5,22.5-31.61.189-.858.377-1.716.54-2.47.112-.54.223-1.055.317-1.561l.146-.755a1.809,1.809,0,0,0,.043-.275.238.238,0,0,0,0-.051l-4.4-.858a33.584,33.584,0,0,1-4.984,11.58c-3.714-8.912-22.594-2.994-22.594-2.994h-.094a11.7,11.7,0,0,1-7.137,0s-18.648-6.185-22.517,2.325a118.034,118.034,0,0,1-6.485-11.417l-4.6.326Zm37.177,12.807c21.351-2.882,18.014,8.578,18.014,8.578a35.776,35.776,0,0,1-6,4.555,24.934,24.934,0,0,1-12.575,3.431c-3.328-.154-4.169.532-12.455-3.946a21.1,21.1,0,0,1-4.392-3.337h0c-.377-2.23-3.989-12.97,17.413-9.281Z" transform="translate(-43.443 -20.721)"/>
      <path id="Path_2537" data-name="Path 2537" d="M326.34,131.786c0,2.316,1.192,4.186,2.668,4.186s2.659-1.87,2.659-4.186-1.192-4.186-2.659-4.186S326.34,129.47,326.34,131.786Z" transform="translate(-46.405 -18.143)" fill="#403657"/>
      <path id="Path_2538" data-name="Path 2538" d="M365.15,131.786c0,2.316,1.192,4.186,2.659,4.186s2.659-1.87,2.659-4.186-1.192-4.186-2.659-4.186S365.15,129.47,365.15,131.786Z" transform="translate(-51.924 -18.143)" fill="#403657"/>
      <path id="Path_2539" data-name="Path 2539" d="M318.3,115.643s11.006-4.349,19.481-.695l-.858,4.718s-12.438-1.055-18.7,1.484a8.209,8.209,0,0,1,.077-5.507Z" transform="translate(-45.189 -16.136)"/>
      <path id="Path_2540" data-name="Path 2540" d="M376.128,115.641s-11.083-4.375-19.618-.695l.858,4.752s12.524-1.064,18.872,1.493a8.227,8.227,0,0,0-.112-5.55Z" transform="translate(-50.695 -16.134)"/>
      <path id="Path_2541" data-name="Path 2541" d="M346.966,150.969a10.937,10.937,0,0,1-3.723-.781,1.029,1.029,0,1,1,.772-1.9c.935.377,3.165.969,4.135.386a1.124,1.124,0,0,0,.506-.961c.369-3.594-.618-15.638-.626-15.766a1.029,1.029,0,0,1,2.05-.163c.043.5,1.012,12.361.626,16.144a3.165,3.165,0,0,1-1.5,2.513,4.34,4.34,0,0,1-2.239.532Z" transform="translate(-48.709 -18.609)" fill="#f97853"/>
      <path id="Path_2542" data-name="Path 2542" d="M358.987,163.44c-.781,3.937-3.38,11.151-12.129,11.151s-11.229-6.614-12.078-11.151Z" transform="translate(-47.605 -23.239)" fill="#fff"/>
      <path id="Path_2543" data-name="Path 2543" d="M302.276,109.7a211.489,211.489,0,0,0,2.814,27.372l4.6-.326s-1.115-7.111-1.63-11.743-1.39-13.287,2.573-14.377,1.63-10.945,7.12-15.226,17.739-5.473,25.837-.463,17.216-.377,20.939.489,8.8,6,7.437,10.808,2.736,7.72,3.731,12.7-2.187,18.357-2.187,18.357l4.392.858a154.693,154.693,0,0,0,2.136-29.654A22.62,22.62,0,0,0,368.549,89.24c-18.872-10.68-38.738-6.7-51.828-1.664A22.543,22.543,0,0,0,302.276,109.7Z" transform="translate(-42.979 -11.727)"/>
      <path id="Path_2544" data-name="Path 2544" d="M502.919,383.377c-2.8,25.519-19.463,82.537-31,93.714-15.02,14.583-64.455,45.154-90.206,60.844-4.641,2.839,17.156,21.694,17.156,21.694s68.392-29.242,94.512-52.326c7.386-6.519,22.38-27.089,39.313-66.265,5.147-11.872,17.568-35.83,16.924-51.468C548.863,371.642,520.307,374.6,502.919,383.377Z" transform="translate(-54.187 -53.526)" fill="#e2a02b"/>
      <path id="Path_2545" data-name="Path 2545" d="M454.516,555.45s-18.6,7.06-25.185,14.823-15.3,14.359-13.184,17.388,11.769-5.884,11.769-5.884,2.651,9.83,12.009,10.894,27.064-17.25,27.064-17.25Z" transform="translate(-59.13 -78.984)" fill="#ffa681"/>
      <path id="Path_2546" data-name="Path 2546" d="M648.918,450.287v5.687c0,2.162-.077,4.564-.146,7.2-.052,1.8-.1,3.706-.172,5.7-.06,1.716-.129,3.431-.2,5.25s-.163,3.757-.257,5.722c-1.3,26.729-4.426,63.64-11.306,93.225H492.13c4.829-21.505,12.206-55.422,18.065-99.427q.369-2.779.729-5.61t.712-5.713c.129-1.021.249-2.05.369-3.088.1-.858.2-1.716.292-2.573.275-2.376.515-4.709.738-7q.274-2.874.506-5.644c2.488-29.585,1.6-51.759,5.147-65.038,4.152-15.44,52.566-33.188,52.566-33.188l30.332,1.587s28.916,9.436,44.374,23.015,2.573,54.093,2.908,77.09C648.91,448.314,648.918,449.24,648.918,450.287Z" transform="translate(-69.981 -49.17)" fill="#e2a02b"/>
      <path id="Path_2547" data-name="Path 2547" d="M652.354,472.265a338.255,338.255,0,0,1-40.317,2.23c-44.1,0-85.488-6.742-95.507-8.5q.274-2.874.506-5.644c11.649,2.059,79.046,13.21,135.378,6.228C652.4,468.19,652.379,470.1,652.354,472.265Z" transform="translate(-73.451 -65.461)" fill="#e0d5f8"/>
      <path id="Path_2548" data-name="Path 2548" d="M651.968,481.551c-.051,1.8-.1,3.706-.172,5.7a338.448,338.448,0,0,1-40.025,2.187c-46.587,0-90.155-7.523-96.931-8.741.129-1.021.249-2.05.369-3.088.1-.858.2-1.716.292-2.573C522.234,476.3,593.105,488.808,651.968,481.551Z" transform="translate(-73.21 -67.55)" fill="#e0d5f8"/>
      <path id="Path_2549" data-name="Path 2549" d="M651.364,494.395c-.077,1.844-.163,3.757-.257,5.722a335.223,335.223,0,0,1-41.766,2.4c-45.1,0-87.367-7.051-96.151-8.578q.369-2.779.729-5.61C524.359,490.166,593.986,501.9,651.364,494.395Z" transform="translate(-72.976 -69.439)" fill="#e0d5f8"/>
      <path id="Path_2550" data-name="Path 2550" d="M594.195,376.7c15.08,0,28.994-16.032,29.594-16.736a1.064,1.064,0,0,0-1.613-1.39c-.146.172-14.72,16.959-29.285,15.946a1.066,1.066,0,0,0-.146,2.127C593.226,376.687,593.68,376.7,594.195,376.7Z" transform="translate(-84.147 -50.936)" fill="#e0d5f8"/>
      <path id="Path_2551" data-name="Path 2551" d="M600.352,577.407a1.064,1.064,0,0,0,.12-2.119c-38.953-4.486-55.1-71.918-55.251-72.6a1.065,1.065,0,1,0-2.076.48c.661,2.839,16.65,69.576,57.086,74.225Z" transform="translate(-77.231 -71.365)" fill="#e0d5f8"/>
      <path id="Path_2552" data-name="Path 2552" d="M587.55,560.392a1.064,1.064,0,0,0,.558-1.964c-20.724-12.738-23.8-31.61-23.83-31.8a1.067,1.067,0,1,0-2.11.317c.129.806,3.217,19.97,24.825,33.291a1.073,1.073,0,0,0,.558.154Z" transform="translate(-79.939 -74.757)" fill="#e0d5f8"/>
      <circle id="Ellipse_70" data-name="Ellipse 70" cx="42.675" cy="42.675" r="42.675" transform="translate(477.031 183.897)" fill="#403657"/>
      <path id="Path_2553" data-name="Path 2553" d="M555.157,246.879s-12.086-3.337-10.491-15.071c1.355-9.985,13.081-3.508,12.009-11.314s-3.32-14.891,6.768-16.847c8.835-1.716,8.981,4.349,20.587-4.426,13.725-10.371,24.224,13.639,36.448,14.36,18.014,1.064,20.3,11.263,22.08,19.421s-5.147,13.879-5.147,13.879Z" transform="translate(-77.431 -27.958)"/>
      <path id="Path_2554" data-name="Path 2554" d="M562.245,277.3s-6.768-9.015-11.795-1.561,2.084,29.465,14.394,24.1Z" transform="translate(-78.042 -38.789)" fill="#f97853"/>
      <path id="Path_2555" data-name="Path 2555" d="M562.588,294.342a1.029,1.029,0,0,1-.995-.763c-1.913-6.794-8.947-9.547-9.024-9.573a1.041,1.041,0,0,1,.738-1.947c.326.12,8.089,3.131,10.294,10.963a1.038,1.038,0,0,1-.721,1.278A1.081,1.081,0,0,1,562.588,294.342Z" transform="translate(-78.48 -40.098)" fill="#ea5143"/>
      <path id="Path_2556" data-name="Path 2556" d="M555.908,291.6a1.063,1.063,0,0,1-.566-.172,1.038,1.038,0,0,1-.309-1.433,9.436,9.436,0,0,1,3.9-3.148,1.04,1.04,0,0,1,.858,1.9,7.454,7.454,0,0,0-3,2.376A1.038,1.038,0,0,1,555.908,291.6Z" transform="translate(-78.902 -40.775)" fill="#ea5143"/>
      <path id="Path_2557" data-name="Path 2557" d="M616.313,326.09v21.891s-9,9.642-17.825,10.405-14.188-9.71-14.188-9.71v-21.05Z" transform="translate(-83.088 -46.369)" fill="#ffa681"/>
      <path id="Path_2558" data-name="Path 2558" d="M616.313,326.09v9.71c-5.919,6.571-16.444,8.218-32.013,5.919V327.625Z" transform="translate(-83.088 -46.369)" fill="#f97853"/>
      <path id="Path_2559" data-name="Path 2559" d="M635.506,255.982a212.839,212.839,0,0,1-2.839,27.655c-.4,2.119-.858,4.117-1.372,5.91-4.606,16.127-16.127,43.791-48.388,32.27-14.248-5.087-20.853-20.956-23.8-37.1a155.9,155.9,0,0,1-2.119-29.954,22.843,22.843,0,0,1,11.6-19.446c19.034-10.791,39.133-6.768,52.326-1.716A22.766,22.766,0,0,1,635.506,255.982Z" transform="translate(-79.197 -32.489)" fill="#ffa681"/>
      <path id="Path_2560" data-name="Path 2560" d="M603.41,277.825v1.716a12.918,12.918,0,0,0,12.867,12.936h.42a11.606,11.606,0,0,0,8.02-3.551,12.679,12.679,0,0,0,3.74-9.015v-2.042a4.6,4.6,0,0,0-.3-1.613,4.529,4.529,0,0,0-4.237-2.925H607.948a4.538,4.538,0,0,0-4.092,2.573,4.41,4.41,0,0,0-.438,1.836.525.525,0,0,0-.009.086Zm1.887,0a2.659,2.659,0,0,1,2.651-2.659H623.92a2.651,2.651,0,0,1,2.651,2.659v2.084a10.791,10.791,0,0,1-3.157,7.72,9.8,9.8,0,0,1-6.734,3.011h-.386a10.894,10.894,0,0,1-7.72-3.191,11.005,11.005,0,0,1-3.26-7.857Z" transform="translate(-85.805 -38.866)" fill="#403657"/>
      <path id="Path_2561" data-name="Path 2561" d="M566.14,277.829v1.716a12.918,12.918,0,0,0,12.867,12.936h.429a11.615,11.615,0,0,0,8.012-3.551,12.687,12.687,0,0,0,3.749-9.015v-2.042a.27.27,0,0,0,0-.086,4.375,4.375,0,0,0-.386-1.716,4.529,4.529,0,0,0-4.152-2.711H570.678A4.546,4.546,0,0,0,567.186,275a4.623,4.623,0,0,0-1.046,2.9Zm1.887,0a2.659,2.659,0,0,1,2.651-2.659H586.65a2.659,2.659,0,0,1,2.659,2.659v2.084a10.834,10.834,0,0,1-3.157,7.72,9.814,9.814,0,0,1-6.742,3.011h-.386a10.851,10.851,0,0,1-7.72-3.191,10.98,10.98,0,0,1-3.268-7.857Z" transform="translate(-80.505 -38.87)" fill="#403657"/>
      <path id="Path_2562" data-name="Path 2562" d="M643.817,272.384a22.465,22.465,0,0,0-10.834,2.093c-.42.206-1.57.944-1.613.978l.858,1.6s1.261-.746,1.716-.978a19.858,19.858,0,0,1,9.8-1.81Z" transform="translate(-89.781 -38.726)" fill="#403657"/>
      <path id="Path_2563" data-name="Path 2563" d="M603.2,278.2l.618-1.776a19.1,19.1,0,0,0-5.661-.952,12.772,12.772,0,0,0-5.147.986l.858,1.716a11.152,11.152,0,0,1,4.349-.8A17.731,17.731,0,0,1,603.2,278.2Z" transform="translate(-84.326 -39.17)" fill="#403657"/>
      <path id="Path_2564" data-name="Path 2564" d="M558.45,272.92v1.887a24.131,24.131,0,0,1,7.557,2.084l.858-1.716a25.562,25.562,0,0,0-8.415-2.256Z" transform="translate(-79.412 -38.808)" fill="#403657"/>
      <path id="Path_2565" data-name="Path 2565" d="M582.478,280.679c0,2.333-1.2,4.229-2.685,4.229s-2.693-1.9-2.693-4.229,1.2-4.229,2.693-4.229S582.478,278.346,582.478,280.679Z" transform="translate(-82.064 -39.31)" fill="#403657"/>
      <path id="Path_2566" data-name="Path 2566" d="M619.2,280.679c0,2.333-1.2,4.229-2.685,4.229s-2.693-1.9-2.693-4.229,1.209-4.229,2.693-4.229S619.2,278.346,619.2,280.679Z" transform="translate(-87.285 -39.31)" fill="#403657"/>
      <path id="Path_2567" data-name="Path 2567" d="M569.954,265.867s11.2-4.426,19.824-.695l-.721,4a36.315,36.315,0,0,0-18.477,1.33C570.031,268.646,569.259,267.763,569.954,265.867Z" transform="translate(-81.008 -37.493)"/>
      <path id="Path_2568" data-name="Path 2568" d="M626.485,265.867s-11.151-4.426-19.815-.695l.712,4a36.35,36.35,0,0,1,18.486,1.33C626.442,268.646,627.214,267.763,626.485,265.867Z" transform="translate(-86.269 -37.493)"/>
      <path id="Path_2569" data-name="Path 2569" d="M599.879,298.678a11.039,11.039,0,0,0,3.766-.789,1.029,1.029,0,0,0,.566-1.355,1.047,1.047,0,0,0-1.355-.575c-.935.386-3.191.978-4.169.395a1.132,1.132,0,0,1-.515-.969c-.369-3.628.626-15.8.635-15.921a1.041,1.041,0,0,0-2.076-.172c-.043.506-1.021,12.49-.626,16.3a3.182,3.182,0,0,0,1.518,2.573A4.289,4.289,0,0,0,599.879,298.678Z" transform="translate(-84.753 -39.578)" fill="#f97853"/>
      <path id="Path_2570" data-name="Path 2570" d="M585.49,308.21c.858,4.289,3.68,12.146,13.193,12.146s12.215-7.2,13.133-12.146Z" transform="translate(-83.257 -43.826)" fill="#fff"/>
      <path id="Path_2571" data-name="Path 2571" d="M599.819,328.136a10.809,10.809,0,0,0,5.07-1.424,1.041,1.041,0,0,0-1.072-1.784,8.741,8.741,0,0,1-4,1.124,8.476,8.476,0,0,1-3.783-1.115,1.038,1.038,0,1,0-1.124,1.741A10.294,10.294,0,0,0,599.819,328.136Z" transform="translate(-84.522 -46.176)" fill="#f97853"/>
      <path id="Path_2572" data-name="Path 2572" d="M562.329,277.943c-.789-4.289-1.561-9.83-.995-12.661,1.012-5.027,5.147-7.978,3.783-12.816s3.731-10.071,7.506-10.928,12.567,1,21.239-3.114c8.269-3.937,22.654-1.124,25,4.186,2.839,6.433-1.021,7.043,6.717,13.991,3.079,2.771-.575,9.968-1.1,14.651a31.52,31.52,0,0,0-.18,5.516v1.175h9.264c1.021-7.257,1.6-15.269,1.93-21.96a22.792,22.792,0,0,0-14.583-22.346c-13.227-5.087-33.317-9.118-52.326,1.716a22.843,22.843,0,0,0-11.589,19.412,165.832,165.832,0,0,0,1.124,23.161Z" transform="translate(-79.199 -32.49)"/>
      <path id="Path_2573" data-name="Path 2573" d="M641.509,288.233a37.848,37.848,0,0,1,.566-7.231c.575-3.26,1.518-6.219,4.864-7.583,2.685-1.089,5.55-1.115,7.591,1.913,5.027,7.454-.566,30.649-12.867,25.271Z" transform="translate(-91.222 -38.783)" fill="#ffa681"/>
      <path id="Path_2574" data-name="Path 2574" d="M644.249,295.027a1.029,1.029,0,0,0,.858-.944c.54-7.034,6.905-11.151,6.974-11.151a1.039,1.039,0,1,0-1.107-1.758c-.3.18-7.317,4.658-7.935,12.764a1.029,1.029,0,0,0,.952,1.115,1,1,0,0,0,.257-.026Z" transform="translate(-91.44 -39.959)" fill="#f97853"/>
      <path id="Path_2575" data-name="Path 2575" d="M650.951,291.134a1.029,1.029,0,0,0,.515-.266,1.055,1.055,0,0,0,0-1.475,9.539,9.539,0,0,0-4.443-2.325,1.047,1.047,0,0,0-.463,2.033,7.514,7.514,0,0,1,3.431,1.716,1.021,1.021,0,0,0,.961.317Z" transform="translate(-91.838 -40.818)" fill="#f97853"/>
      <path id="Path_2576" data-name="Path 2576" d="M634.622,369c-15.2,23.04-73.367,102.687-86.492,111.943-17.087,12.009-63.666,29.165-90.412,47.025-9.084,6.065,12.387,23.238,12.387,23.238s65.193-18.323,94.538-37.065c8.3-5.3,42.89-39.9,64.875-70.6,7.54-10.508,19.815-25.116,21.591-40.642C653.151,385.015,647.532,375.451,634.622,369Z" transform="translate(-64.769 -52.47)" fill="#e2a02b"/>
      <rect id="Rectangle_1318" data-name="Rectangle 1318" width="189.599" height="22.826" rx="2.31" transform="translate(261.432 497.645)" fill="#1a0b42"/>
      <path id="Path_2577" data-name="Path 2577" d="M298.836,582.162,263.2,448.7a11.8,11.8,0,0,1,11.409-14.857H353.04a11.812,11.812,0,0,1,11.366,8.578l39.244,139.744Z" transform="translate(-37.37 -61.691)" fill="#403657"/>
      <path id="Path_2578" data-name="Path 2578" d="M379.357,442.461l38.918,138.551h8.964L388.321,442.461a11.812,11.812,0,0,0-11.374-8.621H368a11.812,11.812,0,0,1,11.357,8.621Z" transform="translate(-52.329 -61.691)" fill="#1a0b42"/>
      <path id="Path_2579" data-name="Path 2579" d="M352.384,524.618c2.033,8.8-3.431,15.938-12.249,15.938s-17.593-7.137-19.635-15.938,3.431-15.938,12.258-15.938S350.342,515.817,352.384,524.618Z" transform="translate(-45.514 -72.333)" fill="#614c6e"/>
      <path id="Path_2580" data-name="Path 2580" d="M776.779,617.385v1.3a13.613,13.613,0,0,1-13.6,13.587H57.345a13.6,13.6,0,0,1-13.6-13.6v-1.3a13.6,13.6,0,0,1,13.6-13.587h705.83a13.6,13.6,0,0,1,13.6,13.6Z" transform="translate(-6.219 -85.857)" fill="#212121"/>
      <path id="Path_2581" data-name="Path 2581" d="M776.779,617.385v.652H43.74v-.652a13.6,13.6,0,0,1,13.6-13.6h705.83a13.6,13.6,0,0,1,13.6,13.6Z" transform="translate(-6.219 -85.857)" fill="#c6c6c6"/>
    </g>
  </g>
</svg>
