<svg xmlns="http://www.w3.org/2000/svg" width="794.469" height="435.999" viewBox="0 0 794.469 435.999">
  <g id="Work_with_us" data-name="Work with us" transform="translate(-0.002 -0.08)">
    <g id="Layer_2" data-name="Layer 2" transform="translate(0.002 0.08)">
      <g id="Layer_1" data-name="Layer 1">
        <rect id="Rectangle_1003" data-name="Rectangle 1003" width="59.653" height="349.289" transform="translate(368.965 75.436)" fill="#dcdcdc"/>
        <rect id="Rectangle_1004" data-name="Rectangle 1004" width="16.345" height="349.289" transform="translate(428.617 75.436)" fill="#aaa"/>
        <rect id="Rectangle_1005" data-name="Rectangle 1005" width="11.687" height="7.739" transform="translate(428.631 90.034)" fill="#fff"/>
        <rect id="Rectangle_1006" data-name="Rectangle 1006" width="11.687" height="7.739" transform="translate(428.631 117.436)" fill="#f4f4f4"/>
        <rect id="Rectangle_1007" data-name="Rectangle 1007" width="11.687" height="7.739" transform="translate(428.631 144.845)" fill="#f4f4f4"/>
        <rect id="Rectangle_1008" data-name="Rectangle 1008" width="11.687" height="7.739" transform="translate(428.631 172.255)" fill="#f4f4f4"/>
        <rect id="Rectangle_1009" data-name="Rectangle 1009" width="11.687" height="7.739" transform="translate(428.631 199.664)" fill="#f4f4f4"/>
        <rect id="Rectangle_1010" data-name="Rectangle 1010" width="11.687" height="7.739" transform="translate(428.631 227.066)" fill="#f4f4f4"/>
        <rect id="Rectangle_1011" data-name="Rectangle 1011" width="11.687" height="7.739" transform="translate(428.631 254.475)" fill="#f4f4f4"/>
        <rect id="Rectangle_1012" data-name="Rectangle 1012" width="11.687" height="7.739" transform="translate(428.631 281.884)" fill="#f4f4f4"/>
        <rect id="Rectangle_1013" data-name="Rectangle 1013" width="11.687" height="7.739" transform="translate(428.631 309.293)" fill="#f4f4f4"/>
        <rect id="Rectangle_1014" data-name="Rectangle 1014" width="11.687" height="7.739" transform="translate(428.631 336.695)" fill="#f4f4f4"/>
        <rect id="Rectangle_1015" data-name="Rectangle 1015" width="11.687" height="7.739" transform="translate(428.631 364.104)" fill="#f4f4f4"/>
        <g id="Group_2361" data-name="Group 2361" transform="translate(405.562 90.034)">
          <rect id="Rectangle_1016" data-name="Rectangle 1016" width="23.069" height="7.739" fill="#fff"/>
          <rect id="Rectangle_1017" data-name="Rectangle 1017" width="23.069" height="7.739" transform="translate(0 27.402)" fill="#fff"/>
          <rect id="Rectangle_1018" data-name="Rectangle 1018" width="23.069" height="7.739" transform="translate(0 54.811)" fill="#fff"/>
          <rect id="Rectangle_1019" data-name="Rectangle 1019" width="23.069" height="7.739" transform="translate(0 82.22)" fill="#fff"/>
          <rect id="Rectangle_1020" data-name="Rectangle 1020" width="23.069" height="7.739" transform="translate(0 109.629)" fill="#fff"/>
          <rect id="Rectangle_1021" data-name="Rectangle 1021" width="23.069" height="7.739" transform="translate(0 137.032)" fill="#fff"/>
          <rect id="Rectangle_1022" data-name="Rectangle 1022" width="23.069" height="7.739" transform="translate(0 164.441)" fill="#fff"/>
          <rect id="Rectangle_1023" data-name="Rectangle 1023" width="23.069" height="7.739" transform="translate(0 191.85)" fill="#fff"/>
          <rect id="Rectangle_1024" data-name="Rectangle 1024" width="23.069" height="7.739" transform="translate(0 219.259)" fill="#fff"/>
          <rect id="Rectangle_1025" data-name="Rectangle 1025" width="23.069" height="7.739" transform="translate(0 246.661)" fill="#fff"/>
          <rect id="Rectangle_1026" data-name="Rectangle 1026" width="23.069" height="7.739" transform="translate(0 274.07)" fill="#fff"/>
          <rect id="Rectangle_1027" data-name="Rectangle 1027" width="23.069" height="7.739" transform="translate(0 301.479)" fill="#fff"/>
        </g>
        <g id="Group_2362" data-name="Group 2362" transform="translate(375.722 90.034)">
          <rect id="Rectangle_1028" data-name="Rectangle 1028" width="23.069" height="7.739" fill="#fff"/>
          <rect id="Rectangle_1029" data-name="Rectangle 1029" width="23.069" height="7.739" transform="translate(0 27.402)" fill="#fff"/>
          <rect id="Rectangle_1030" data-name="Rectangle 1030" width="23.069" height="7.739" transform="translate(0 54.811)" fill="#fff"/>
          <rect id="Rectangle_1031" data-name="Rectangle 1031" width="23.069" height="7.739" transform="translate(0 82.22)" fill="#fff"/>
          <rect id="Rectangle_1032" data-name="Rectangle 1032" width="23.069" height="7.739" transform="translate(0 109.629)" fill="#fff"/>
          <rect id="Rectangle_1033" data-name="Rectangle 1033" width="23.069" height="7.739" transform="translate(0 137.032)" fill="#fff"/>
          <rect id="Rectangle_1034" data-name="Rectangle 1034" width="23.069" height="7.739" transform="translate(0 164.441)" fill="#fff"/>
          <rect id="Rectangle_1035" data-name="Rectangle 1035" width="23.069" height="7.739" transform="translate(0 191.85)" fill="#fff"/>
          <rect id="Rectangle_1036" data-name="Rectangle 1036" width="23.069" height="7.739" transform="translate(0 219.259)" fill="#fff"/>
          <rect id="Rectangle_1037" data-name="Rectangle 1037" width="23.069" height="7.739" transform="translate(0 246.661)" fill="#fff"/>
          <rect id="Rectangle_1038" data-name="Rectangle 1038" width="23.069" height="7.739" transform="translate(0 274.07)" fill="#fff"/>
          <rect id="Rectangle_1039" data-name="Rectangle 1039" width="23.069" height="7.739" transform="translate(0 301.479)" fill="#fff"/>
        </g>
        <rect id="Rectangle_1040" data-name="Rectangle 1040" width="11.687" height="7.739" transform="translate(428.631 391.513)" fill="#f4f4f4"/>
        <rect id="Rectangle_1041" data-name="Rectangle 1041" width="47.797" height="279.886" transform="translate(505.516 144.845)" fill="#dcdcdc"/>
        <rect id="Rectangle_1042" data-name="Rectangle 1042" width="13.095" height="279.886" transform="translate(553.312 144.845)" fill="#aaa"/>
        <rect id="Rectangle_1043" data-name="Rectangle 1043" width="9.364" height="6.202" transform="translate(553.319 156.539)" fill="#f4f4f4"/>
        <rect id="Rectangle_1044" data-name="Rectangle 1044" width="9.364" height="6.202" transform="translate(553.319 178.504)" fill="#f4f4f4"/>
        <rect id="Rectangle_1045" data-name="Rectangle 1045" width="9.364" height="6.202" transform="translate(553.319 200.463)" fill="#f4f4f4"/>
        <rect id="Rectangle_1046" data-name="Rectangle 1046" width="9.364" height="6.202" transform="translate(553.319 222.421)" fill="#f4f4f4"/>
        <rect id="Rectangle_1047" data-name="Rectangle 1047" width="9.364" height="6.202" transform="translate(553.319 244.386)" fill="#f4f4f4"/>
        <rect id="Rectangle_1048" data-name="Rectangle 1048" width="9.364" height="6.202" transform="translate(553.319 266.344)" fill="#f4f4f4"/>
        <rect id="Rectangle_1049" data-name="Rectangle 1049" width="9.364" height="6.202" transform="translate(553.319 288.31)" fill="#f4f4f4"/>
        <rect id="Rectangle_1050" data-name="Rectangle 1050" width="9.364" height="6.202" transform="translate(553.319 310.268)" fill="#f4f4f4"/>
        <rect id="Rectangle_1051" data-name="Rectangle 1051" width="9.364" height="6.202" transform="translate(553.319 332.233)" fill="#f4f4f4"/>
        <rect id="Rectangle_1052" data-name="Rectangle 1052" width="9.364" height="6.202" transform="translate(553.319 354.192)" fill="#f4f4f4"/>
        <rect id="Rectangle_1053" data-name="Rectangle 1053" width="9.364" height="6.202" transform="translate(553.319 376.15)" fill="#f4f4f4"/>
        <g id="Group_2363" data-name="Group 2363" transform="translate(534.834 156.539)">
          <rect id="Rectangle_1054" data-name="Rectangle 1054" width="18.485" height="6.202" fill="#fff"/>
          <rect id="Rectangle_1055" data-name="Rectangle 1055" width="18.485" height="6.202" transform="translate(0 21.965)" fill="#fff"/>
          <rect id="Rectangle_1056" data-name="Rectangle 1056" width="18.485" height="6.202" transform="translate(0 43.924)" fill="#fff"/>
          <rect id="Rectangle_1057" data-name="Rectangle 1057" width="18.485" height="6.202" transform="translate(0 65.882)" fill="#fff"/>
          <rect id="Rectangle_1058" data-name="Rectangle 1058" width="18.485" height="6.202" transform="translate(0 87.847)" fill="#fff"/>
          <rect id="Rectangle_1059" data-name="Rectangle 1059" width="18.485" height="6.202" transform="translate(0 109.805)" fill="#fff"/>
          <rect id="Rectangle_1060" data-name="Rectangle 1060" width="18.485" height="6.202" transform="translate(0 131.771)" fill="#fff"/>
          <rect id="Rectangle_1061" data-name="Rectangle 1061" width="18.485" height="6.202" transform="translate(0 153.729)" fill="#fff"/>
          <rect id="Rectangle_1062" data-name="Rectangle 1062" width="18.485" height="6.202" transform="translate(0 175.694)" fill="#fff"/>
          <rect id="Rectangle_1063" data-name="Rectangle 1063" width="18.485" height="6.202" transform="translate(0 197.653)" fill="#fff"/>
          <rect id="Rectangle_1064" data-name="Rectangle 1064" width="18.485" height="6.202" transform="translate(0 219.611)" fill="#fff"/>
          <rect id="Rectangle_1065" data-name="Rectangle 1065" width="18.485" height="6.202" transform="translate(0 241.576)" fill="#fff"/>
        </g>
        <g id="Group_2364" data-name="Group 2364" transform="translate(510.926 156.539)">
          <rect id="Rectangle_1066" data-name="Rectangle 1066" width="18.485" height="6.202" fill="#fff"/>
          <rect id="Rectangle_1067" data-name="Rectangle 1067" width="18.485" height="6.202" transform="translate(0 21.965)" fill="#fff"/>
          <rect id="Rectangle_1068" data-name="Rectangle 1068" width="18.485" height="6.202" transform="translate(0 43.924)" fill="#fff"/>
          <rect id="Rectangle_1069" data-name="Rectangle 1069" width="18.485" height="6.202" transform="translate(0 65.882)" fill="#fff"/>
          <rect id="Rectangle_1070" data-name="Rectangle 1070" width="18.485" height="6.202" transform="translate(0 87.847)" fill="#fff"/>
          <rect id="Rectangle_1071" data-name="Rectangle 1071" width="18.485" height="6.202" transform="translate(0 109.805)" fill="#fff"/>
          <rect id="Rectangle_1072" data-name="Rectangle 1072" width="18.485" height="6.202" transform="translate(0 131.771)" fill="#fff"/>
          <rect id="Rectangle_1073" data-name="Rectangle 1073" width="18.485" height="6.202" transform="translate(0 153.729)" fill="#fff"/>
          <rect id="Rectangle_1074" data-name="Rectangle 1074" width="18.485" height="6.202" transform="translate(0 175.694)" fill="#fff"/>
          <rect id="Rectangle_1075" data-name="Rectangle 1075" width="18.485" height="6.202" transform="translate(0 197.653)" fill="#fff"/>
          <rect id="Rectangle_1076" data-name="Rectangle 1076" width="18.485" height="6.202" transform="translate(0 219.611)" fill="#fff"/>
          <rect id="Rectangle_1077" data-name="Rectangle 1077" width="18.485" height="6.202" transform="translate(0 241.576)" fill="#fff"/>
        </g>
        <rect id="Rectangle_1078" data-name="Rectangle 1078" width="9.364" height="6.202" transform="translate(553.319 398.115)" fill="#f4f4f4"/>
        <rect id="Rectangle_1079" data-name="Rectangle 1079" width="59.653" height="364.524" transform="translate(249.077 60.208)" fill="#add2db"/>
        <rect id="Rectangle_1080" data-name="Rectangle 1080" width="16.345" height="364.524" transform="translate(308.73 60.208)" fill="#96c4cc"/>
        <rect id="Rectangle_1081" data-name="Rectangle 1081" width="11.687" height="8.078" transform="translate(308.737 75.436)" fill="#96c4cc"/>
        <rect id="Rectangle_1082" data-name="Rectangle 1082" width="11.687" height="8.078" transform="translate(308.737 104.043)" fill="#96c4cc"/>
        <rect id="Rectangle_1083" data-name="Rectangle 1083" width="11.687" height="8.078" transform="translate(308.737 132.644)" fill="#96c4cc"/>
        <rect id="Rectangle_1084" data-name="Rectangle 1084" width="11.687" height="8.078" transform="translate(308.737 161.245)" fill="#96c4cc"/>
        <rect id="Rectangle_1085" data-name="Rectangle 1085" width="11.687" height="8.078" transform="translate(308.737 189.846)" fill="#96c4cc"/>
        <rect id="Rectangle_1086" data-name="Rectangle 1086" width="11.687" height="8.078" transform="translate(308.737 218.453)" fill="#96c4cc"/>
        <rect id="Rectangle_1087" data-name="Rectangle 1087" width="11.687" height="8.078" transform="translate(308.737 247.054)" fill="#96c4cc"/>
        <rect id="Rectangle_1088" data-name="Rectangle 1088" width="11.687" height="8.078" transform="translate(308.737 275.655)" fill="#96c4cc"/>
        <rect id="Rectangle_1089" data-name="Rectangle 1089" width="11.687" height="8.078" transform="translate(308.737 304.255)" fill="#96c4cc"/>
        <rect id="Rectangle_1090" data-name="Rectangle 1090" width="11.687" height="8.078" transform="translate(308.737 332.863)" fill="#96c4cc"/>
        <rect id="Rectangle_1091" data-name="Rectangle 1091" width="11.687" height="8.078" transform="translate(308.737 361.464)" fill="#96c4cc"/>
        <rect id="Rectangle_1092" data-name="Rectangle 1092" width="23.069" height="8.078" transform="translate(285.675 75.436)" fill="#add2db"/>
        <rect id="Rectangle_1093" data-name="Rectangle 1093" width="23.069" height="8.078" transform="translate(285.675 104.043)" fill="#add2db"/>
        <rect id="Rectangle_1094" data-name="Rectangle 1094" width="23.069" height="8.078" transform="translate(285.675 132.644)" fill="#add2db"/>
        <rect id="Rectangle_1095" data-name="Rectangle 1095" width="23.069" height="8.078" transform="translate(285.675 161.245)" fill="#add2db"/>
        <rect id="Rectangle_1096" data-name="Rectangle 1096" width="23.069" height="8.078" transform="translate(285.675 189.846)" fill="#add2db"/>
        <rect id="Rectangle_1097" data-name="Rectangle 1097" width="23.069" height="8.078" transform="translate(285.675 218.453)" fill="#add2db"/>
        <rect id="Rectangle_1098" data-name="Rectangle 1098" width="23.069" height="8.078" transform="translate(285.675 247.054)" fill="#add2db"/>
        <rect id="Rectangle_1099" data-name="Rectangle 1099" width="23.069" height="8.078" transform="translate(285.675 275.655)" fill="#add2db"/>
        <rect id="Rectangle_1100" data-name="Rectangle 1100" width="23.069" height="8.078" transform="translate(285.675 304.255)" fill="#add2db"/>
        <rect id="Rectangle_1101" data-name="Rectangle 1101" width="23.069" height="8.078" transform="translate(285.675 332.863)" fill="#add2db"/>
        <rect id="Rectangle_1102" data-name="Rectangle 1102" width="23.069" height="8.078" transform="translate(285.675 361.464)" fill="#add2db"/>
        <rect id="Rectangle_1103" data-name="Rectangle 1103" width="23.069" height="8.078" transform="translate(285.675 390.064)" fill="#add2db"/>
        <rect id="Rectangle_1104" data-name="Rectangle 1104" width="23.069" height="8.078" transform="translate(255.835 75.436)" fill="#add2db"/>
        <rect id="Rectangle_1105" data-name="Rectangle 1105" width="23.069" height="8.078" transform="translate(255.835 104.043)" fill="#add2db"/>
        <rect id="Rectangle_1106" data-name="Rectangle 1106" width="23.069" height="8.078" transform="translate(255.835 132.644)" fill="#add2db"/>
        <rect id="Rectangle_1107" data-name="Rectangle 1107" width="23.069" height="8.078" transform="translate(255.835 161.245)" fill="#add2db"/>
        <rect id="Rectangle_1108" data-name="Rectangle 1108" width="23.069" height="8.078" transform="translate(255.835 189.846)" fill="#add2db"/>
        <rect id="Rectangle_1109" data-name="Rectangle 1109" width="23.069" height="8.078" transform="translate(255.835 218.453)" fill="#add2db"/>
        <rect id="Rectangle_1110" data-name="Rectangle 1110" width="23.069" height="8.078" transform="translate(255.835 247.054)" fill="#add2db"/>
        <rect id="Rectangle_1111" data-name="Rectangle 1111" width="23.069" height="8.078" transform="translate(255.835 275.655)" fill="#add2db"/>
        <rect id="Rectangle_1112" data-name="Rectangle 1112" width="23.069" height="8.078" transform="translate(255.835 304.255)" fill="#add2db"/>
        <rect id="Rectangle_1113" data-name="Rectangle 1113" width="23.069" height="8.078" transform="translate(255.835 332.863)" fill="#add2db"/>
        <rect id="Rectangle_1114" data-name="Rectangle 1114" width="23.069" height="8.078" transform="translate(255.835 361.464)" fill="#add2db"/>
        <rect id="Rectangle_1115" data-name="Rectangle 1115" width="23.069" height="8.078" transform="translate(255.835 390.064)" fill="#add2db"/>
        <rect id="Rectangle_1116" data-name="Rectangle 1116" width="11.687" height="8.078" transform="translate(308.737 390.064)" fill="#96c4cc"/>
        <rect id="Rectangle_1117" data-name="Rectangle 1117" width="59.653" height="364.524" transform="translate(566.353 60.208)" fill="#dcdcdc"/>
        <rect id="Rectangle_1118" data-name="Rectangle 1118" width="16.345" height="364.524" transform="translate(626.006 60.208)" fill="#aaa"/>
        <rect id="Rectangle_1119" data-name="Rectangle 1119" width="11.687" height="8.078" transform="translate(626.013 75.436)" fill="#f4f4f4"/>
        <rect id="Rectangle_1120" data-name="Rectangle 1120" width="11.687" height="8.078" transform="translate(626.013 104.043)" fill="#f4f4f4"/>
        <rect id="Rectangle_1121" data-name="Rectangle 1121" width="11.687" height="8.078" transform="translate(626.013 132.644)" fill="#f4f4f4"/>
        <rect id="Rectangle_1122" data-name="Rectangle 1122" width="11.687" height="8.078" transform="translate(626.013 161.245)" fill="#f4f4f4"/>
        <rect id="Rectangle_1123" data-name="Rectangle 1123" width="11.687" height="8.078" transform="translate(626.013 189.846)" fill="#f4f4f4"/>
        <rect id="Rectangle_1124" data-name="Rectangle 1124" width="11.687" height="8.078" transform="translate(626.013 218.453)" fill="#f4f4f4"/>
        <rect id="Rectangle_1125" data-name="Rectangle 1125" width="11.687" height="8.078" transform="translate(626.013 247.054)" fill="#f4f4f4"/>
        <rect id="Rectangle_1126" data-name="Rectangle 1126" width="11.687" height="8.078" transform="translate(626.013 275.655)" fill="#f4f4f4"/>
        <rect id="Rectangle_1127" data-name="Rectangle 1127" width="11.687" height="8.078" transform="translate(626.013 304.255)" fill="#f4f4f4"/>
        <rect id="Rectangle_1128" data-name="Rectangle 1128" width="11.687" height="8.078" transform="translate(626.013 332.863)" fill="#f4f4f4"/>
        <rect id="Rectangle_1129" data-name="Rectangle 1129" width="11.687" height="8.078" transform="translate(626.013 361.464)" fill="#f4f4f4"/>
        <g id="Group_2365" data-name="Group 2365" transform="translate(602.944 75.436)">
          <rect id="Rectangle_1130" data-name="Rectangle 1130" width="23.069" height="8.078" fill="#fff"/>
          <rect id="Rectangle_1131" data-name="Rectangle 1131" width="23.069" height="8.078" transform="translate(0 28.608)" fill="#fff"/>
          <rect id="Rectangle_1132" data-name="Rectangle 1132" width="23.069" height="8.078" transform="translate(0 57.208)" fill="#fff"/>
          <rect id="Rectangle_1133" data-name="Rectangle 1133" width="23.069" height="8.078" transform="translate(0 85.809)" fill="#fff"/>
          <rect id="Rectangle_1134" data-name="Rectangle 1134" width="23.069" height="8.078" transform="translate(0 114.41)" fill="#fff"/>
          <rect id="Rectangle_1135" data-name="Rectangle 1135" width="23.069" height="8.078" transform="translate(0 143.017)" fill="#fff"/>
          <rect id="Rectangle_1136" data-name="Rectangle 1136" width="23.069" height="8.078" transform="translate(0 171.618)" fill="#fff"/>
          <rect id="Rectangle_1137" data-name="Rectangle 1137" width="23.069" height="8.078" transform="translate(0 200.219)" fill="#fff"/>
          <rect id="Rectangle_1138" data-name="Rectangle 1138" width="23.069" height="8.078" transform="translate(0 228.82)" fill="#fff"/>
          <rect id="Rectangle_1139" data-name="Rectangle 1139" width="23.069" height="8.078" transform="translate(0 257.427)" fill="#fff"/>
          <rect id="Rectangle_1140" data-name="Rectangle 1140" width="23.069" height="8.078" transform="translate(0 286.028)" fill="#fff"/>
          <rect id="Rectangle_1141" data-name="Rectangle 1141" width="23.069" height="8.078" transform="translate(0 314.629)" fill="#fff"/>
        </g>
        <g id="Group_2366" data-name="Group 2366" transform="translate(573.111 75.436)">
          <rect id="Rectangle_1142" data-name="Rectangle 1142" width="23.069" height="8.078" fill="#fff"/>
          <rect id="Rectangle_1143" data-name="Rectangle 1143" width="23.069" height="8.078" transform="translate(0 28.608)" fill="#fff"/>
          <rect id="Rectangle_1144" data-name="Rectangle 1144" width="23.069" height="8.078" transform="translate(0 57.208)" fill="#fff"/>
          <rect id="Rectangle_1145" data-name="Rectangle 1145" width="23.069" height="8.078" transform="translate(0 85.809)" fill="#fff"/>
          <rect id="Rectangle_1146" data-name="Rectangle 1146" width="23.069" height="8.078" transform="translate(0 114.41)" fill="#fff"/>
          <rect id="Rectangle_1147" data-name="Rectangle 1147" width="23.069" height="8.078" transform="translate(0 143.017)" fill="#fff"/>
          <rect id="Rectangle_1148" data-name="Rectangle 1148" width="23.069" height="8.078" transform="translate(0 171.618)" fill="#fff"/>
          <rect id="Rectangle_1149" data-name="Rectangle 1149" width="23.069" height="8.078" transform="translate(0 200.219)" fill="#fff"/>
          <rect id="Rectangle_1150" data-name="Rectangle 1150" width="23.069" height="8.078" transform="translate(0 228.82)" fill="#fff"/>
          <rect id="Rectangle_1151" data-name="Rectangle 1151" width="23.069" height="8.078" transform="translate(0 257.427)" fill="#fff"/>
          <rect id="Rectangle_1152" data-name="Rectangle 1152" width="23.069" height="8.078" transform="translate(0 286.028)" fill="#fff"/>
          <rect id="Rectangle_1153" data-name="Rectangle 1153" width="23.069" height="8.078" transform="translate(0 314.629)" fill="#fff"/>
        </g>
        <rect id="Rectangle_1154" data-name="Rectangle 1154" width="11.687" height="8.078" transform="translate(626.013 390.064)" fill="#f4f4f4"/>
        <rect id="Rectangle_1155" data-name="Rectangle 1155" width="29.075" height="336.688" transform="translate(448.206 88.043)" fill="#dcdcdc"/>
        <rect id="Rectangle_1156" data-name="Rectangle 1156" width="7.963" height="336.688" transform="translate(477.281 88.043)" fill="#aaa"/>
        <rect id="Rectangle_1157" data-name="Rectangle 1157" width="5.694" height="7.462" transform="translate(477.287 102.107)" fill="#f4f4f4"/>
        <rect id="Rectangle_1158" data-name="Rectangle 1158" width="5.694" height="7.462" transform="translate(477.287 128.527)" fill="#f4f4f4"/>
        <rect id="Rectangle_1159" data-name="Rectangle 1159" width="5.694" height="7.462" transform="translate(477.287 154.948)" fill="#f4f4f4"/>
        <rect id="Rectangle_1160" data-name="Rectangle 1160" width="5.694" height="7.462" transform="translate(477.287 181.361)" fill="#f4f4f4"/>
        <rect id="Rectangle_1161" data-name="Rectangle 1161" width="5.694" height="7.462" transform="translate(477.287 207.782)" fill="#f4f4f4"/>
        <rect id="Rectangle_1162" data-name="Rectangle 1162" width="5.694" height="7.462" transform="translate(477.287 234.202)" fill="#f4f4f4"/>
        <rect id="Rectangle_1163" data-name="Rectangle 1163" width="5.694" height="7.462" transform="translate(477.287 260.623)" fill="#f4f4f4"/>
        <rect id="Rectangle_1164" data-name="Rectangle 1164" width="5.694" height="7.462" transform="translate(477.287 287.037)" fill="#f4f4f4"/>
        <rect id="Rectangle_1165" data-name="Rectangle 1165" width="5.694" height="7.462" transform="translate(477.287 313.457)" fill="#f4f4f4"/>
        <rect id="Rectangle_1166" data-name="Rectangle 1166" width="5.694" height="7.462" transform="translate(477.287 339.878)" fill="#f4f4f4"/>
        <rect id="Rectangle_1167" data-name="Rectangle 1167" width="5.694" height="7.462" transform="translate(477.287 366.291)" fill="#f4f4f4"/>
        <g id="Group_2367" data-name="Group 2367" transform="translate(466.041 102.107)">
          <rect id="Rectangle_1168" data-name="Rectangle 1168" width="11.247" height="7.462" fill="#fff"/>
          <rect id="Rectangle_1169" data-name="Rectangle 1169" width="11.247" height="7.462" transform="translate(0 26.42)" fill="#fff"/>
          <rect id="Rectangle_1170" data-name="Rectangle 1170" width="11.247" height="7.462" transform="translate(0 52.841)" fill="#fff"/>
          <rect id="Rectangle_1171" data-name="Rectangle 1171" width="11.247" height="7.462" transform="translate(0 79.255)" fill="#fff"/>
          <rect id="Rectangle_1172" data-name="Rectangle 1172" width="11.247" height="7.462" transform="translate(0 105.675)" fill="#fff"/>
          <rect id="Rectangle_1173" data-name="Rectangle 1173" width="11.247" height="7.462" transform="translate(0 132.096)" fill="#fff"/>
          <rect id="Rectangle_1174" data-name="Rectangle 1174" width="11.247" height="7.462" transform="translate(0 158.516)" fill="#fff"/>
          <rect id="Rectangle_1175" data-name="Rectangle 1175" width="11.247" height="7.462" transform="translate(0 184.93)" fill="#fff"/>
          <rect id="Rectangle_1176" data-name="Rectangle 1176" width="11.247" height="7.462" transform="translate(0 211.35)" fill="#fff"/>
          <rect id="Rectangle_1177" data-name="Rectangle 1177" width="11.247" height="7.462" transform="translate(0 237.771)" fill="#fff"/>
          <rect id="Rectangle_1178" data-name="Rectangle 1178" width="11.247" height="7.462" transform="translate(0 264.185)" fill="#fff"/>
          <rect id="Rectangle_1179" data-name="Rectangle 1179" width="11.247" height="7.462" transform="translate(0 290.605)" fill="#fff"/>
        </g>
        <g id="Group_2368" data-name="Group 2368" transform="translate(451.497 102.107)">
          <rect id="Rectangle_1180" data-name="Rectangle 1180" width="11.247" height="7.462" fill="#fff"/>
          <rect id="Rectangle_1181" data-name="Rectangle 1181" width="11.247" height="7.462" transform="translate(0 26.42)" fill="#fff"/>
          <rect id="Rectangle_1182" data-name="Rectangle 1182" width="11.247" height="7.462" transform="translate(0 52.841)" fill="#fff"/>
          <rect id="Rectangle_1183" data-name="Rectangle 1183" width="11.247" height="7.462" transform="translate(0 79.255)" fill="#fff"/>
          <rect id="Rectangle_1184" data-name="Rectangle 1184" width="11.247" height="7.462" transform="translate(0 105.675)" fill="#fff"/>
          <rect id="Rectangle_1185" data-name="Rectangle 1185" width="11.247" height="7.462" transform="translate(0 132.096)" fill="#fff"/>
          <rect id="Rectangle_1186" data-name="Rectangle 1186" width="11.247" height="7.462" transform="translate(0 158.516)" fill="#fff"/>
          <rect id="Rectangle_1187" data-name="Rectangle 1187" width="11.247" height="7.462" transform="translate(0 184.93)" fill="#fff"/>
          <rect id="Rectangle_1188" data-name="Rectangle 1188" width="11.247" height="7.462" transform="translate(0 211.35)" fill="#fff"/>
          <rect id="Rectangle_1189" data-name="Rectangle 1189" width="11.247" height="7.462" transform="translate(0 237.771)" fill="#fff"/>
          <rect id="Rectangle_1190" data-name="Rectangle 1190" width="11.247" height="7.462" transform="translate(0 264.185)" fill="#fff"/>
          <rect id="Rectangle_1191" data-name="Rectangle 1191" width="11.247" height="7.462" transform="translate(0 290.605)" fill="#fff"/>
        </g>
        <rect id="Rectangle_1192" data-name="Rectangle 1192" width="5.694" height="7.462" transform="translate(477.287 392.712)" fill="#f4f4f4"/>
        <rect id="Rectangle_1193" data-name="Rectangle 1193" width="22.825" height="336.688" transform="translate(653.3 88.043)" fill="#dcdcdc"/>
        <rect id="Rectangle_1194" data-name="Rectangle 1194" width="6.25" height="336.688" transform="translate(676.118 88.043)" fill="#aaa"/>
        <rect id="Rectangle_1195" data-name="Rectangle 1195" width="4.469" height="7.462" transform="translate(676.125 102.107)" fill="#f4f4f4"/>
        <rect id="Rectangle_1196" data-name="Rectangle 1196" width="4.469" height="7.462" transform="translate(676.125 128.527)" fill="#f4f4f4"/>
        <rect id="Rectangle_1197" data-name="Rectangle 1197" width="4.469" height="7.462" transform="translate(676.125 154.948)" fill="#f4f4f4"/>
        <rect id="Rectangle_1198" data-name="Rectangle 1198" width="4.469" height="7.462" transform="translate(676.125 181.361)" fill="#f4f4f4"/>
        <rect id="Rectangle_1199" data-name="Rectangle 1199" width="4.469" height="7.462" transform="translate(676.125 207.782)" fill="#f4f4f4"/>
        <rect id="Rectangle_1200" data-name="Rectangle 1200" width="4.469" height="7.462" transform="translate(676.125 234.202)" fill="#f4f4f4"/>
        <rect id="Rectangle_1201" data-name="Rectangle 1201" width="4.469" height="7.462" transform="translate(676.125 260.623)" fill="#96c4cc"/>
        <rect id="Rectangle_1202" data-name="Rectangle 1202" width="4.469" height="7.462" transform="translate(676.125 287.037)" fill="#96c4cc"/>
        <rect id="Rectangle_1203" data-name="Rectangle 1203" width="4.469" height="7.462" transform="translate(676.125 313.457)" fill="#96c4cc"/>
        <rect id="Rectangle_1204" data-name="Rectangle 1204" width="4.469" height="7.462" transform="translate(676.125 339.878)" fill="#96c4cc"/>
        <rect id="Rectangle_1205" data-name="Rectangle 1205" width="4.469" height="7.462" transform="translate(676.125 366.291)" fill="#96c4cc"/>
        <g id="Group_2369" data-name="Group 2369" transform="translate(667.295 102.107)">
          <rect id="Rectangle_1206" data-name="Rectangle 1206" width="8.823" height="7.462" fill="#fff"/>
          <rect id="Rectangle_1207" data-name="Rectangle 1207" width="8.823" height="7.462" transform="translate(0 26.42)" fill="#fff"/>
          <rect id="Rectangle_1208" data-name="Rectangle 1208" width="8.823" height="7.462" transform="translate(0 52.841)" fill="#fff"/>
          <rect id="Rectangle_1209" data-name="Rectangle 1209" width="8.823" height="7.462" transform="translate(0 79.255)" fill="#fff"/>
          <rect id="Rectangle_1210" data-name="Rectangle 1210" width="8.823" height="7.462" transform="translate(0 105.675)" fill="#fff"/>
          <rect id="Rectangle_1211" data-name="Rectangle 1211" width="8.823" height="7.462" transform="translate(0 132.096)" fill="#fff"/>
          <rect id="Rectangle_1212" data-name="Rectangle 1212" width="8.823" height="7.462" transform="translate(0 158.516)" fill="#fff"/>
          <rect id="Rectangle_1213" data-name="Rectangle 1213" width="8.823" height="7.462" transform="translate(0 184.93)" fill="#fff"/>
          <rect id="Rectangle_1214" data-name="Rectangle 1214" width="8.823" height="7.462" transform="translate(0 211.35)" fill="#fff"/>
          <rect id="Rectangle_1215" data-name="Rectangle 1215" width="8.823" height="7.462" transform="translate(0 237.771)" fill="#fff"/>
          <rect id="Rectangle_1216" data-name="Rectangle 1216" width="8.823" height="7.462" transform="translate(0 264.185)" fill="#fff"/>
          <rect id="Rectangle_1217" data-name="Rectangle 1217" width="8.823" height="7.462" transform="translate(0 290.605)" fill="#fff"/>
        </g>
        <g id="Group_2370" data-name="Group 2370" transform="translate(655.88 102.107)">
          <rect id="Rectangle_1218" data-name="Rectangle 1218" width="8.823" height="7.462" fill="#fff"/>
          <rect id="Rectangle_1219" data-name="Rectangle 1219" width="8.823" height="7.462" transform="translate(0 26.42)" fill="#fff"/>
          <rect id="Rectangle_1220" data-name="Rectangle 1220" width="8.823" height="7.462" transform="translate(0 52.841)" fill="#fff"/>
          <rect id="Rectangle_1221" data-name="Rectangle 1221" width="8.823" height="7.462" transform="translate(0 79.255)" fill="#fff"/>
          <rect id="Rectangle_1222" data-name="Rectangle 1222" width="8.823" height="7.462" transform="translate(0 105.675)" fill="#fff"/>
          <rect id="Rectangle_1223" data-name="Rectangle 1223" width="8.823" height="7.462" transform="translate(0 132.096)" fill="#fff"/>
          <rect id="Rectangle_1224" data-name="Rectangle 1224" width="8.823" height="7.462" transform="translate(0 158.516)" fill="#fff"/>
          <rect id="Rectangle_1225" data-name="Rectangle 1225" width="8.823" height="7.462" transform="translate(0 184.93)" fill="#fff"/>
          <rect id="Rectangle_1226" data-name="Rectangle 1226" width="8.823" height="7.462" transform="translate(0 211.35)" fill="#fff"/>
          <rect id="Rectangle_1227" data-name="Rectangle 1227" width="8.823" height="7.462" transform="translate(0 237.771)" fill="#fff"/>
          <rect id="Rectangle_1228" data-name="Rectangle 1228" width="8.823" height="7.462" transform="translate(0 264.185)" fill="#fff"/>
          <rect id="Rectangle_1229" data-name="Rectangle 1229" width="8.823" height="7.462" transform="translate(0 290.605)" fill="#fff"/>
        </g>
        <rect id="Rectangle_1230" data-name="Rectangle 1230" width="4.469" height="7.462" transform="translate(676.125 392.712)" fill="#f4f4f4"/>
        <rect id="Rectangle_1231" data-name="Rectangle 1231" width="22.825" height="336.688" transform="translate(199.974 88.043)" fill="#add2db"/>
        <rect id="Rectangle_1232" data-name="Rectangle 1232" width="6.25" height="336.688" transform="translate(222.792 88.043)" fill="#96c4cc"/>
        <rect id="Rectangle_1233" data-name="Rectangle 1233" width="4.469" height="7.462" transform="translate(222.799 102.107)" fill="#96c4cc"/>
        <rect id="Rectangle_1234" data-name="Rectangle 1234" width="4.469" height="7.462" transform="translate(222.799 128.527)" fill="#96c4cc"/>
        <rect id="Rectangle_1235" data-name="Rectangle 1235" width="4.469" height="7.462" transform="translate(222.799 154.948)" fill="#96c4cc"/>
        <rect id="Rectangle_1236" data-name="Rectangle 1236" width="4.469" height="7.462" transform="translate(222.799 181.361)" fill="#96c4cc"/>
        <rect id="Rectangle_1237" data-name="Rectangle 1237" width="4.469" height="7.462" transform="translate(222.799 207.782)" fill="#96c4cc"/>
        <rect id="Rectangle_1238" data-name="Rectangle 1238" width="4.469" height="7.462" transform="translate(222.799 234.202)" fill="#96c4cc"/>
        <rect id="Rectangle_1239" data-name="Rectangle 1239" width="4.469" height="7.462" transform="translate(222.799 260.623)" fill="#96c4cc"/>
        <rect id="Rectangle_1240" data-name="Rectangle 1240" width="4.469" height="7.462" transform="translate(222.799 287.037)" fill="#96c4cc"/>
        <rect id="Rectangle_1241" data-name="Rectangle 1241" width="4.469" height="7.462" transform="translate(222.799 313.457)" fill="#96c4cc"/>
        <rect id="Rectangle_1242" data-name="Rectangle 1242" width="4.469" height="7.462" transform="translate(222.799 339.878)" fill="#96c4cc"/>
        <rect id="Rectangle_1243" data-name="Rectangle 1243" width="4.469" height="7.462" transform="translate(222.799 366.291)" fill="#96c4cc"/>
        <rect id="Rectangle_1244" data-name="Rectangle 1244" width="8.823" height="7.462" transform="translate(213.97 102.107)" fill="#add2db"/>
        <rect id="Rectangle_1245" data-name="Rectangle 1245" width="8.823" height="7.462" transform="translate(213.97 128.527)" fill="#add2db"/>
        <rect id="Rectangle_1246" data-name="Rectangle 1246" width="8.823" height="7.462" transform="translate(213.97 154.948)" fill="#add2db"/>
        <rect id="Rectangle_1247" data-name="Rectangle 1247" width="8.823" height="7.462" transform="translate(213.97 181.361)" fill="#add2db"/>
        <rect id="Rectangle_1248" data-name="Rectangle 1248" width="8.823" height="7.462" transform="translate(213.97 207.782)" fill="#add2db"/>
        <rect id="Rectangle_1249" data-name="Rectangle 1249" width="8.823" height="7.462" transform="translate(213.97 234.202)" fill="#add2db"/>
        <rect id="Rectangle_1250" data-name="Rectangle 1250" width="8.823" height="7.462" transform="translate(213.97 260.623)" fill="#add2db"/>
        <rect id="Rectangle_1251" data-name="Rectangle 1251" width="8.823" height="7.462" transform="translate(213.97 287.037)" fill="#add2db"/>
        <rect id="Rectangle_1252" data-name="Rectangle 1252" width="8.823" height="7.462" transform="translate(213.97 313.457)" fill="#add2db"/>
        <rect id="Rectangle_1253" data-name="Rectangle 1253" width="8.823" height="7.462" transform="translate(213.97 339.878)" fill="#add2db"/>
        <rect id="Rectangle_1254" data-name="Rectangle 1254" width="8.823" height="7.462" transform="translate(213.97 366.291)" fill="#add2db"/>
        <rect id="Rectangle_1255" data-name="Rectangle 1255" width="8.823" height="7.462" transform="translate(213.97 392.712)" fill="#add2db"/>
        <rect id="Rectangle_1256" data-name="Rectangle 1256" width="8.823" height="7.462" transform="translate(202.554 102.107)" fill="#add2db"/>
        <rect id="Rectangle_1257" data-name="Rectangle 1257" width="8.823" height="7.462" transform="translate(202.554 128.527)" fill="#add2db"/>
        <rect id="Rectangle_1258" data-name="Rectangle 1258" width="8.823" height="7.462" transform="translate(202.554 154.948)" fill="#add2db"/>
        <rect id="Rectangle_1259" data-name="Rectangle 1259" width="8.823" height="7.462" transform="translate(202.554 181.361)" fill="#add2db"/>
        <rect id="Rectangle_1260" data-name="Rectangle 1260" width="8.823" height="7.462" transform="translate(202.554 207.782)" fill="#add2db"/>
        <rect id="Rectangle_1261" data-name="Rectangle 1261" width="8.823" height="7.462" transform="translate(202.554 234.202)" fill="#add2db"/>
        <rect id="Rectangle_1262" data-name="Rectangle 1262" width="8.823" height="7.462" transform="translate(202.554 260.623)" fill="#add2db"/>
        <rect id="Rectangle_1263" data-name="Rectangle 1263" width="8.823" height="7.462" transform="translate(202.554 287.037)" fill="#add2db"/>
        <rect id="Rectangle_1264" data-name="Rectangle 1264" width="8.823" height="7.462" transform="translate(202.554 313.457)" fill="#add2db"/>
        <rect id="Rectangle_1265" data-name="Rectangle 1265" width="8.823" height="7.462" transform="translate(202.554 339.878)" fill="#add2db"/>
        <rect id="Rectangle_1266" data-name="Rectangle 1266" width="8.823" height="7.462" transform="translate(202.554 366.291)" fill="#add2db"/>
        <rect id="Rectangle_1267" data-name="Rectangle 1267" width="8.823" height="7.462" transform="translate(202.554 392.712)" fill="#add2db"/>
        <rect id="Rectangle_1268" data-name="Rectangle 1268" width="4.469" height="7.462" transform="translate(222.799 392.712)" fill="#96c4cc"/>
        <rect id="Rectangle_1269" data-name="Rectangle 1269" width="46.415" height="296.205" transform="translate(725.465 128.527)" fill="#dcdcdc"/>
        <rect id="Rectangle_1270" data-name="Rectangle 1270" width="12.716" height="296.205" transform="translate(771.88 128.527)" fill="#aaa"/>
        <rect id="Rectangle_1271" data-name="Rectangle 1271" width="9.093" height="6.568" transform="translate(771.887 140.905)" fill="#f4f4f4"/>
        <rect id="Rectangle_1272" data-name="Rectangle 1272" width="9.093" height="6.568" transform="translate(771.887 164.143)" fill="#f4f4f4"/>
        <rect id="Rectangle_1273" data-name="Rectangle 1273" width="9.093" height="6.568" transform="translate(771.887 187.388)" fill="#f4f4f4"/>
        <rect id="Rectangle_1274" data-name="Rectangle 1274" width="9.093" height="6.568" transform="translate(771.887 210.626)" fill="#f4f4f4"/>
        <rect id="Rectangle_1275" data-name="Rectangle 1275" width="9.093" height="6.568" transform="translate(771.887 233.871)" fill="#f4f4f4"/>
        <rect id="Rectangle_1276" data-name="Rectangle 1276" width="9.093" height="6.568" transform="translate(771.887 257.109)" fill="#f4f4f4"/>
        <rect id="Rectangle_1277" data-name="Rectangle 1277" width="9.093" height="6.568" transform="translate(770.533 280.354)" fill="#f4f4f4"/>
        <rect id="Rectangle_1278" data-name="Rectangle 1278" width="9.093" height="6.568" transform="translate(771.887 303.599)" fill="#f4f4f4"/>
        <rect id="Rectangle_1279" data-name="Rectangle 1279" width="9.093" height="6.568" transform="translate(771.887 326.837)" fill="#f4f4f4"/>
        <rect id="Rectangle_1280" data-name="Rectangle 1280" width="9.093" height="6.568" transform="translate(771.887 350.082)" fill="#f4f4f4"/>
        <rect id="Rectangle_1281" data-name="Rectangle 1281" width="9.093" height="6.568" transform="translate(771.887 373.32)" fill="#f4f4f4"/>
        <rect id="Rectangle_1282" data-name="Rectangle 1282" width="17.95" height="6.568" transform="translate(753.937 140.905)" fill="#fff"/>
        <rect id="Rectangle_1283" data-name="Rectangle 1283" width="17.95" height="6.568" transform="translate(753.937 164.143)" fill="#fff"/>
        <rect id="Rectangle_1284" data-name="Rectangle 1284" width="17.95" height="6.568" transform="translate(753.937 187.388)" fill="#fff"/>
        <rect id="Rectangle_1285" data-name="Rectangle 1285" width="17.95" height="6.568" transform="translate(753.937 210.626)" fill="#fff"/>
        <rect id="Rectangle_1286" data-name="Rectangle 1286" width="17.95" height="6.568" transform="translate(753.937 233.871)" fill="#fff"/>
        <rect id="Rectangle_1287" data-name="Rectangle 1287" width="17.95" height="6.568" transform="translate(753.937 257.109)" fill="#fff"/>
        <rect id="Rectangle_1288" data-name="Rectangle 1288" width="17.95" height="6.568" transform="translate(753.937 280.354)" fill="#fff"/>
        <rect id="Rectangle_1289" data-name="Rectangle 1289" width="17.95" height="6.568" transform="translate(753.937 303.599)" fill="#fff"/>
        <rect id="Rectangle_1290" data-name="Rectangle 1290" width="17.95" height="6.568" transform="translate(753.937 326.837)" fill="#fff"/>
        <rect id="Rectangle_1291" data-name="Rectangle 1291" width="17.95" height="6.568" transform="translate(753.937 350.082)" fill="#fff"/>
        <rect id="Rectangle_1292" data-name="Rectangle 1292" width="17.95" height="6.568" transform="translate(753.937 373.32)" fill="#fff"/>
        <rect id="Rectangle_1293" data-name="Rectangle 1293" width="17.95" height="6.568" transform="translate(753.937 396.565)" fill="#fff"/>
        <g id="Group_2371" data-name="Group 2371" transform="translate(730.726 140.905)">
          <rect id="Rectangle_1294" data-name="Rectangle 1294" width="17.95" height="6.568" fill="#fff"/>
          <rect id="Rectangle_1295" data-name="Rectangle 1295" width="17.95" height="6.568" transform="translate(0 23.238)" fill="#fff"/>
          <rect id="Rectangle_1296" data-name="Rectangle 1296" width="17.95" height="6.568" transform="translate(0 46.483)" fill="#fff"/>
          <rect id="Rectangle_1297" data-name="Rectangle 1297" width="17.95" height="6.568" transform="translate(0 69.721)" fill="#fff"/>
          <rect id="Rectangle_1298" data-name="Rectangle 1298" width="17.95" height="6.568" transform="translate(0 92.966)" fill="#fff"/>
          <rect id="Rectangle_1299" data-name="Rectangle 1299" width="17.95" height="6.568" transform="translate(0 116.204)" fill="#fff"/>
          <rect id="Rectangle_1300" data-name="Rectangle 1300" width="17.95" height="6.568" transform="translate(0 139.449)" fill="#fff"/>
          <rect id="Rectangle_1301" data-name="Rectangle 1301" width="17.95" height="6.568" transform="translate(0 162.694)" fill="#fff"/>
          <rect id="Rectangle_1302" data-name="Rectangle 1302" width="17.95" height="6.568" transform="translate(0 185.932)" fill="#fff"/>
          <rect id="Rectangle_1303" data-name="Rectangle 1303" width="17.95" height="6.568" transform="translate(0 209.177)" fill="#fff"/>
          <rect id="Rectangle_1304" data-name="Rectangle 1304" width="17.95" height="6.568" transform="translate(0 232.415)" fill="#fff"/>
          <rect id="Rectangle_1305" data-name="Rectangle 1305" width="17.95" height="6.568" transform="translate(0 255.66)" fill="#fff"/>
        </g>
        <rect id="Rectangle_1306" data-name="Rectangle 1306" width="9.093" height="6.568" transform="translate(771.887 396.565)" fill="#f4f4f4"/>
        <path id="Path_2409" data-name="Path 2409" d="M187.191,541.509s-17.476-100.82-24.545-111.234c-9.764-14.388-21.9,29.792-22.493,25.886-5.593-36.652-4.421-82.877-30.578-89.885-14.9-3.981.982,34.532-.867,44.445s-26.576-25.5-41.811-44.242-24.558-8.4-15.729,14.334c8.538,21.985,39.468,47.749,32.541,49.95s-45.745-28.438-51.6-17.131c-7.177,13.84,52.631,38.263,46.632,41.019s-34.492-10.2-34.492.826,39.367,13.779,38.371,18.546c-1.659,7.712-26.407-12.046-28.323-1.354-1.97,10.949,33.577,11.782,32.332,20.313-.677,4.923-9.662-.23-11.287,6.541-3.69,15.431,52.326,37.058,52.326,37.058Z" transform="translate(-10.177 -115.254)" fill="#3f964f"/>
        <path id="Path_2410" data-name="Path 2410" d="M210.635,589.522c-7.11-9.249-49.1-60.98-74.522-69.234-28.059-9.114-1.618,27.084-1.618,27.084S84.721,492.758,66.46,497.68c-16.745,4.516,0,38.364,0,38.364S47.6,517.3,24.7,517.3c-22.256,0,16.162,68.658,18.2,72.22Z" transform="translate(-5.745 -160.653)" fill="#73c67f"/>
        <path id="Path_2411" data-name="Path 2411" d="M42.806,562.545c-.135,1.07-1.022,4.164-.481,7.218a14.462,14.462,0,0,0,2.1,5.85,11.28,11.28,0,0,1-4.7-4.062c-2.1-2.871-3.25-7.854-2.776-10,.494-4.53,3.507-6.771,4.74-5.417S43,560.189,42.806,562.545Z" transform="translate(-11.898 -179.503)" fill="#00c91c"/>
        <path id="Path_2412" data-name="Path 2412" d="M69.815,574.661c-.135,1.063-1.022,4.164-.474,7.218a14.409,14.409,0,0,0,2.1,5.843,11.158,11.158,0,0,1-4.7-4.063c-2.113-2.837-3.25-7.848-2.79-9.994.494-4.53,3.5-6.737,4.74-5.417S70.046,572.305,69.815,574.661Z" transform="translate(-20.618 -183.419)" fill="#00c91c"/>
        <path id="Path_2413" data-name="Path 2413" d="M97.273,589.982c-.135,1.07-1.022,4.164-.474,7.225a14.4,14.4,0,0,0,2.092,5.843,11.261,11.261,0,0,1-4.7-4.063c-2.092-2.851-3.25-7.827-2.79-9.981.494-4.53,3.507-6.73,4.74-5.417S97.462,587.626,97.273,589.982Z" transform="translate(-29.482 -188.374)" fill="#00c91c"/>
        <path id="Path_2414" data-name="Path 2414" d="M34.93,593.053c.379-.88,1.1-3.778,2.871-5.647a8.986,8.986,0,0,1,4.151-2.844,8.294,8.294,0,0,0-5.281-.278c-2.817.636-5.891,3.5-6.507,5.417-1.659,3.683-.42,7.407,1.083,7.3S34.022,594.929,34.93,593.053Z" transform="translate(-9.485 -188.621)" fill="#00c91c"/>
        <path id="Path_2415" data-name="Path 2415" d="M63.031,605.5c.379-.88,1.1-3.778,2.871-5.654a9.039,9.039,0,0,1,4.151-2.837,8.294,8.294,0,0,0-5.281-.278c-2.817.636-5.891,3.5-6.507,5.417-1.652,3.683-.42,7.407,1.09,7.3S62.124,607.379,63.031,605.5Z" transform="translate(-18.56 -192.641)" fill="#00c91c"/>
        <path id="Path_2416" data-name="Path 2416" d="M17.748,566.357a11.749,11.749,0,0,0,.758,4.191,7.259,7.259,0,0,0,2.031,2.844,5.667,5.667,0,0,1-3.237-1.266,8.244,8.244,0,0,1-3-5.024c-.366-2.708,1.022-4.591,1.916-4.117S17.524,565,17.748,566.357Z" transform="translate(-4.6 -181.818)" fill="#00c91c"/>
        <path id="Path_2417" data-name="Path 2417" d="M13.3,581.349a9.415,9.415,0,0,1,2.4-3.074,5.221,5.221,0,0,1,2.912-1.1,5.709,5.709,0,0,0-3.277-1.05,5.944,5.944,0,0,0-4.658,2.322c-1.429,2.031-1.043,4.584-.088,4.74S12.547,582.372,13.3,581.349Z" transform="translate(-3.143 -186.085)" fill="#00c91c"/>
        <path id="Path_2418" data-name="Path 2418" d="M69.214,423.978c20.313,39.746,35.406,87.441,43.89,134.35H115.3c-8.464-45.907-24.22-93.988-44.519-133.673-4.74-9.229-9.811-20.178-18.647-23.78-.169-.068-.237.257-.074.332C60.113,405.02,64.8,415.366,69.214,423.978Z" transform="translate(-16.78 -129.494)" fill="#00c91c"/>
        <path id="Path_2419" data-name="Path 2419" d="M95.747,582.2c-22.724-38.676-51.358-76.316-84.211-107.4-.325-.3-.765.406-.44.724C42.242,505.494,70.362,542.2,93.553,582.2Z" transform="translate(-3.547 -153.341)" fill="#00c91c"/>
        <path id="Path_2420" data-name="Path 2420" d="M71.465,394.785c-.528.961-2.532,3.474-3.121,6.771a17.4,17.4,0,0,0-.061,6.92,15.885,15.885,0,0,1-3.128-6.663c-1-3.988-.3-9.479.948-11.348,2.14-4.144,5.891-4.564,6.622-2.553S72.514,392.591,71.465,394.785Z" transform="translate(-20.887 -124.933)" fill="#00c91c"/>
        <path id="Path_2421" data-name="Path 2421" d="M64.424,446.926c.758-.677,2.708-3.23,5.356-4.029a8.944,8.944,0,0,1,5.518-.264,11.906,11.906,0,0,0-5.417-3.738c-3.209-1.171-7.611-.183-9.053,1.408-3.264,2.763-3.528,7.448-1.9,8.335S62.724,448.28,64.424,446.926Z" transform="translate(-18.714 -141.607)" fill="#00c91c"/>
        <path id="Path_2422" data-name="Path 2422" d="M75.269,469.912c.765-.677,2.708-3.23,5.356-4.063a9,9,0,0,1,5.525-.257,11.9,11.9,0,0,0-5.417-3.738c-3.2-1.171-7.611-.19-9.046,1.4-3.27,2.769-3.528,7.448-1.909,8.342S73.542,471.266,75.269,469.912Z" transform="translate(-22.219 -149.02)" fill="#00c91c"/>
        <path id="Path_2423" data-name="Path 2423" d="M36.6,523.172c.758-.677,2.708-3.23,5.349-4.063a8.992,8.992,0,0,1,5.525-.257,11.851,11.851,0,0,0-5.417-3.738c-3.2-1.171-7.6-.19-9.046,1.4-3.264,2.769-3.528,7.448-1.909,8.342S34.863,524.533,36.6,523.172Z" transform="translate(-9.73 -166.218)" fill="#00c91c"/>
        <path id="Path_2424" data-name="Path 2424" d="M16.836,501.38c.758-.677,2.708-3.23,5.349-4.063a8.965,8.965,0,0,1,5.525-.264,11.9,11.9,0,0,0-5.417-3.738c-3.2-1.171-7.6-.183-9.046,1.408-3.264,2.763-3.528,7.448-1.909,8.335S15.1,502.741,16.836,501.38Z" transform="translate(-3.35 -159.18)" fill="#00c91c"/>
        <path id="Path_2425" data-name="Path 2425" d="M86.432,420.732c-.636.846-2.932,2.932-3.934,6.094a17.266,17.266,0,0,0-.968,6.8,17.239,17.239,0,0,1-2.207-7.218c-.488-4.13.9-9.479,2.363-11.023,2.641-3.663,6.392-3.338,6.859-1.212S87.746,418.775,86.432,420.732Z" transform="translate(-25.582 -133.282)" fill="#00c91c"/>
        <path id="Path_2426" data-name="Path 2426" d="M101.153,446.026c-.907.6-4.063,1.7-5.674,4.672a14.475,14.475,0,0,0-1.923,7.076c.176.2-2.262-4.361-2.153-9.242-.223-4.875,2.085-10.068,4.124-11.03,3.778-2.675,8.606-.291,9.005,2.336S103.049,444.549,101.153,446.026Z" transform="translate(-29.51 -140.944)" fill="#00c91c"/>
        <path id="Path_2427" data-name="Path 2427" d="M117.763,485.267c-.982.406-4.259.813-6.229,3.386a13.321,13.321,0,0,0-2.837,6.575c.135.23-1.645-4.74-.887-9.561.433-4.855,3.386-9.48,5.552-10.008,4.063-1.842,8.518,1.523,8.559,4.2S119.822,484.21,117.763,485.267Z" transform="translate(-34.752 -153.474)" fill="#00c91c"/>
        <path id="Path_2428" data-name="Path 2428" d="M69.181,513.876c-.718.555-3.25,1.672-4.408,4.2a11.822,11.822,0,0,0-1.239,5.891,18.881,18.881,0,0,1-2.173-7.36c-.406-3.954,1.239-8.342,2.851-9.27,2.952-2.444,6.988-.846,7.448,1.259S70.65,512.542,69.181,513.876Z" transform="translate(-19.794 -163.476)" fill="#00c91c"/>
        <path id="Path_2429" data-name="Path 2429" d="M45.245,405.363a9.3,9.3,0,0,1,3.027-2.708,5.315,5.315,0,0,1,3.257-.454,6.629,6.629,0,0,0-3.331-1.916c-1.937-.515-4.5.3-5.3,1.354-1.835,1.815-1.821,4.611-.833,5.038S44.27,406.263,45.245,405.363Z" transform="translate(-13.368 -129.255)" fill="#00c91c"/>
        <path id="Path_2430" data-name="Path 2430" d="M51.287,389.12a13.873,13.873,0,0,0,.156,4.638,8.674,8.674,0,0,0,1.7,3.507,6.643,6.643,0,0,1-3.243-2.113,9.761,9.761,0,0,1-2.4-6.094c0-2.925,1.8-4.625,2.708-3.907S51.26,387.6,51.287,389.12Z" transform="translate(-15.334 -124.366)" fill="#00c91c"/>
        <path id="Path_2431" data-name="Path 2431" d="M3.853,480.783a9.578,9.578,0,0,1,3.02-2.708,5.336,5.336,0,0,1,3.264-.454A6.771,6.771,0,0,0,6.805,475.7c-1.937-.515-4.509.3-5.3,1.354-1.835,1.815-1.828,4.611-.84,5.038S2.871,481.683,3.853,480.783Z" transform="translate(-0.002 -153.608)" fill="#00c91c"/>
        <path id="Path_2432" data-name="Path 2432" d="M11.163,464.327a13.341,13.341,0,0,0-.149,4.638,9.094,9.094,0,0,0,1.463,3.67,7.089,7.089,0,0,1-3.128-2.465,10.051,10.051,0,0,1-1.991-6.29c.217-2.918,2.1-4.428,2.918-3.623S11.2,462.81,11.163,464.327Z" transform="translate(-2.362 -148.601)" fill="#00c91c"/>
        <path id="Path_2433" data-name="Path 2433" d="M17.965,577.38a86.509,86.509,0,0,1,17.341,3.873c10.38,3.385,20.367,8.423,30.2,13.772,4.828,2.627,9.689,5.214,14.429,8.125a49.2,49.2,0,0,1,6.487,4.422,77.183,77.183,0,0,1,7.563,7.719l-2.255.081A75.961,75.961,0,0,0,76.67,603.123c-18.593-11.213-37.938-22.683-58.7-25.534C17.863,577.576,17.87,577.366,17.965,577.38Z" transform="translate(-5.778 -186.489)" fill="#00c91c"/>
        <path id="Path_2434" data-name="Path 2434" d="M301.716,536.761c5.512-4.74,8.843-9.737,7.99-14.72-1.523-8.884-14.138-3.176-14.619-9.594-.833-11.165,47.329-8.552,45.738-22.866-1.557-14-36.956,8.9-38.439-1.219-.914-6.25,52.611-5.721,53.7-19.92s-38.73-.46-46.578-4.638,75.49-29.447,67.148-48.02c-6.8-15.154-62.341,20.313-71.488,16.731s35.209-33.55,48.948-60.987c14.219-28.377,2.593-42.657-19.859-20.1s-59.4,65.645-60.939,52.672,23.7-60.939,3.216-57.357c-36.069,6.317-39.048,66-50.227,112.649-1.185,4.936-13.251-53.213-27.883-35.683-7.523,9.012,6.432,75.409,15.133,113.076Z" transform="translate(-63.378 -109.936)" fill="#96d9c9"/>
        <path id="Path_2435" data-name="Path 2435" d="M386.305,1.515h-.054c-.5-.183-1.009-.339-1.523-.488-.176-.054-.352-.108-.528-.149s-.372-.095-.562-.142L383.062.6l-.542-.108L381.9.364l-.528-.081L380.7.2l-.487-.054L379.433.08H193.047c-.433,0-.86,0-1.28.034a23.368,23.368,0,0,0-2.512.257c-.413.061-.826.135-1.232.217a24.985,24.985,0,0,0-19.765,21.938c-.081.84-.129,1.693-.129,2.553V403.944a25.005,25.005,0,0,0,16.44,23.516h0l.129.041c.474.176.955.325,1.442.467l.528.149.562.142.576.129.548.108.616.115.528.081.677.081.494.054q.386.041.772.061h.413c.393,0,.792.034,1.2.034H377.821c.867,0,1.713-.047,2.553-.129a24.965,24.965,0,0,0,22.236-22.344,24.545,24.545,0,0,0,.129-2.56V25.024A24.992,24.992,0,0,0,386.305,1.515Z" transform="translate(-54.29 -0.08)" fill="#363435"/>
        <rect id="Rectangle_1307" data-name="Rectangle 1307" width="211.168" height="360.773" transform="translate(125.919 34.018)" fill="#eafcfc"/>
        <path id="Path_2436" data-name="Path 2436" d="M397.147,202.3l-60.939-5-1.74-35.717-14.971-.623V136.576l77.65,33.374v-6.839l-25.73-11.05L366.542,50.347h-6.324l4.74,98.965L319.484,129.8v-.677h-1.625l-10.346-4.435-.041-74.373h-6.284l.047,71.631-63-27.03V50.32H225.665V89.531L186,72.509v6.839L225.685,96.37V136.1L186,117.583v6.934l39.685,18.525V166.5l-35.825,45.488-3.859.074v6.283l31.546-.623V260.5l32.934,18.282-34.532,15.187L186,272.633v7.719l28.262,20.164v-.034l-6.8,110.611h12.587l4.232-68.726,53.092,19.406-6.094,49.32h6.331l5.8-47.106,51.819,18.959-9.066,28.147h6.595l8.376-26.007,56.017,20.5v-6.69l-54.06-19.785L358.4,331.567,338.8,320.68c6.812-8.24,21.512-26.068,36.184-44.012,9.344-11.416,16.575-20.313,22.175-27.219v-9.974c-6.947,8.633-15.912,19.636-25.547,31.424l-32.839-20.99-2.248-46.293,60.634,4.977Zm-74.671-28.648,3.453,71.041-37.843-32.866v-39.6Zm-84.245-71.888,74.975,32.156v26.779l-74.975-3.115Zm-40.274,110.07,33.07-41.98,50.783,2.106V210.17ZM223.8,256.8V217.6l60-1.185L320.283,248.1l-62.6,27.524ZM350.82,334.553l-13.65,42.393L224.676,335.84l2.031-32.86,37.552-16.508Zm16.772-58.759c-11.511,14.07-23.7,28.885-34.383,41.784l-61.738-34.3L335.362,255.2Z" transform="translate(-60.06 -16.302)" fill="#fff"/>
        <path id="Path_2437" data-name="Path 2437" d="M352.436,418.324,229.21,374.285l2.16-40.139L339.456,286.37,296.7,249.725V203.412l-53.044-1.6v-42.2h4.482v37.85l53.051,1.6v48.6L347.777,287.6,235.7,337.139l-1.828,34.045L353.946,414.1Z" transform="translate(-74.013 -51.592)" fill="#c0dde3"/>
        <path id="Path_2438" data-name="Path 2438" d="M236.267,129.027l11.511,22.825,12.073-22.527a12.916,12.916,0,0,0-11.159-18.065h-.806A12.9,12.9,0,0,0,236.267,129.027Zm5.884-4.74a6.031,6.031,0,1,1,0,.007Z" transform="translate(-75.985 -35.98)" fill="#497c58"/>
        <path id="Path_2439" data-name="Path 2439" d="M394.257,499.527l11.511,22.825,12.066-22.527a12.91,12.91,0,0,0-11.159-18.065h-.8A12.9,12.9,0,0,0,394.257,499.527Zm5.877-4.74a5.965,5.965,0,1,1,5.891,6.033,5.965,5.965,0,0,1-5.891-6.033Z" transform="translate(-126.999 -155.614)" fill="#184655"/>
        <rect id="Rectangle_1308" data-name="Rectangle 1308" width="90.054" height="4.523" rx="0.87" transform="translate(186.29 18.16)" fill="#fff"/>
        <path id="Path_2440" data-name="Path 2440" d="M346.6,603.866A10.339,10.339,0,1,1,336.266,593.5,10.339,10.339,0,0,1,346.6,603.866Z" transform="translate(-105.24 -191.695)" fill="#daeef7" opacity="0.3"/>
        <rect id="Rectangle_1309" data-name="Rectangle 1309" width="210.45" height="15.14" transform="translate(125.919 379.657)" fill="#3cb4c5" opacity="0.2"/>
        <rect id="Rectangle_1310" data-name="Rectangle 1310" width="211.168" height="19.148" transform="translate(125.919 34.018)" fill="#fad90b"/>
        <rect id="Rectangle_1311" data-name="Rectangle 1311" width="771.096" height="7.435" rx="3.19" transform="translate(23.372 428.564)" fill="#262626"/>
        <path id="Path_2441" data-name="Path 2441" d="M868.128,564.076a31.425,31.425,0,0,0-4.638-16.386h26.847s8.511,12.608-.176,23.909H866.544C867.3,568.944,868.128,566.926,868.128,564.076Z" transform="translate(-278.821 -176.903)" fill="#2c2d2c"/>
        <path id="Path_2442" data-name="Path 2442" d="M716.39,346.94c17.049,0,62.849,73.885,62.849,73.885s46.767,13.21,46.767,21.349v38.283H799.159A38.785,38.785,0,0,0,765.1,460.5c-21.369,0-38.7,17.016-38.7,38.012a37.349,37.349,0,0,0,.928,8.261H664.26V346.94Z" transform="translate(-214.49 -112.081)" fill="#f7c22b"/>
        <path id="Path_2443" data-name="Path 2443" d="M756,364.74h7.272c22.019,22.717,45.589,63.147,45.589,63.147-11.443,0-24.037-12.56-24.037-12.56Z" transform="translate(-244.113 -117.828)" fill="#4093c1"/>
        <rect id="Rectangle_1312" data-name="Rectangle 1312" width="16.027" height="6.27" transform="translate(490.017 331.495) rotate(180)" fill="#220918"/>
        <rect id="Rectangle_1313" data-name="Rectangle 1313" width="222.137" height="162.775" transform="translate(450.122 380.07) rotate(180)" fill="#e2a02b"/>
        <rect id="Rectangle_1314" data-name="Rectangle 1314" width="200.293" height="14.517" transform="translate(449.77 394.587) rotate(180)" fill="#2c2c2c"/>
        <path id="Path_2444" data-name="Path 2444" d="M724.49,364.74H676.03v54.947h44.8l4.273,8.22h23.8v-16.23Z" transform="translate(-218.291 -117.828)" fill="#4093c1"/>
        <path id="Path_2445" data-name="Path 2445" d="M756,364.74h7.272c22.019,22.717,45.589,63.147,45.589,63.147-11.443,0-24.037-12.56-24.037-12.56Z" transform="translate(-244.113 -117.828)" fill="#4093c1"/>
        <path id="Path_2446" data-name="Path 2446" d="M676.03,419.687h.2l52.651-46.51-4.388-8.437H724L676.03,410.41Z" transform="translate(-218.291 -117.828)" fill="#40a6d3"/>
        <path id="Path_2447" data-name="Path 2447" d="M766.294,420.39,744.81,441.062l2.5,4.814h6.927l15.912-18.085Z" transform="translate(-240.5 -135.798)" fill="#40a6d3"/>
        <path id="Path_2448" data-name="Path 2448" d="M740.211,389.65,697.56,427.73H709.1L744.348,397.6Z" transform="translate(-225.243 -125.872)" fill="#40a6d3"/>
        <path id="Path_2449" data-name="Path 2449" d="M676.03,390.883v8.382l34.817-34.525H701.74Z" transform="translate(-218.291 -117.828)" fill="#40a6d3"/>
        <path id="Path_2450" data-name="Path 2450" d="M422.375,553.786a46.808,46.808,0,1,1,90.664,0Z" transform="translate(-135.908 -159.991)" fill="#2c2d2c"/>
        <circle id="Ellipse_63" data-name="Ellipse 63" cx="42.874" cy="42.874" r="42.874" transform="translate(288.925 343.751)"/>
        <circle id="Ellipse_64" data-name="Ellipse 64" cx="28.614" cy="28.614" r="28.614" transform="translate(303.184 358.01)" fill="#9e9da2"/>
        <circle id="Ellipse_65" data-name="Ellipse 65" cx="13.224" cy="13.224" r="13.224" transform="translate(315.88 396.441) rotate(-76.72)" fill="#d8d9dd"/>
        <path id="Path_2451" data-name="Path 2451" d="M490.99,558.035a1.828,1.828,0,1,1-.543-1.307A1.835,1.835,0,0,1,490.99,558.035Z" transform="translate(-157.356 -179.651)"/>
        <path id="Path_2452" data-name="Path 2452" d="M479.529,562.534a1.835,1.835,0,1,1-2.505.677A1.835,1.835,0,0,1,479.529,562.534Z" transform="translate(-153.953 -181.617)"/>
        <path id="Path_2453" data-name="Path 2453" d="M477.691,574.715a1.828,1.828,0,1,1-.857,1.109A1.828,1.828,0,0,1,477.691,574.715Z" transform="translate(-153.95 -185.551)"/>
        <path id="Path_2454" data-name="Path 2454" d="M487.32,582.395a1.835,1.835,0,1,1,1.815,1.855A1.835,1.835,0,0,1,487.32,582.395Z" transform="translate(-157.356 -187.523)"/>
        <path id="Path_2455" data-name="Path 2455" d="M498.781,577.876a1.828,1.828,0,1,1,1.393.183,1.835,1.835,0,0,1-1.393-.183Z" transform="translate(-160.76 -185.544)"/>
        <path id="Path_2456" data-name="Path 2456" d="M500.619,565.706a1.835,1.835,0,1,1,.677-2.505A1.835,1.835,0,0,1,500.619,565.706Z" transform="translate(-160.763 -181.614)"/>
        <rect id="Rectangle_1315" data-name="Rectangle 1315" width="15.438" height="16.237" transform="translate(596.078 344.089)" fill="#f5fefe"/>
        <rect id="Rectangle_1316" data-name="Rectangle 1316" width="8.755" height="17.598" transform="translate(595.042 342.735)" fill="#e56920"/>
        <rect id="Rectangle_1317" data-name="Rectangle 1317" width="59.314" height="14.896" transform="translate(449.77 379.799)" fill="#2c2d2c"/>
        <path id="Path_2457" data-name="Path 2457" d="M783.226,424.61a9.559,9.559,0,0,0-1,.061v26.1a8,8,0,0,0,1,.068c5.674,0,10.278-5.87,10.278-13.115S788.9,424.61,783.226,424.61Z" transform="translate(-252.583 -137.16)" fill="#eab054"/>
        <path id="Path_2458" data-name="Path 2458" d="M740.375,549.786a46.808,46.808,0,1,1,90.664,0Z" transform="translate(-238.59 -158.7)" fill="#2c2d2c"/>
        <circle id="Ellipse_66" data-name="Ellipse 66" cx="42.874" cy="42.874" r="42.874" transform="translate(504.243 341.042)"/>
        <circle id="Ellipse_67" data-name="Ellipse 67" cx="28.614" cy="28.614" r="28.614" transform="translate(518.503 355.302)" fill="#9e9da2"/>
        <circle id="Ellipse_68" data-name="Ellipse 68" cx="13.224" cy="13.224" r="13.224" transform="translate(531.188 393.729) rotate(-76.72)" fill="#d8d9dd"/>
        <path id="Path_2459" data-name="Path 2459" d="M808.99,554.035a1.828,1.828,0,1,1-.543-1.307,1.835,1.835,0,0,1,.543,1.307Z" transform="translate(-260.038 -178.359)"/>
        <path id="Path_2460" data-name="Path 2460" d="M797.529,558.534a1.835,1.835,0,1,1-2.505.677A1.835,1.835,0,0,1,797.529,558.534Z" transform="translate(-256.635 -180.325)"/>
        <path id="Path_2461" data-name="Path 2461" d="M795.691,570.715a1.828,1.828,0,1,1-.857,1.109A1.828,1.828,0,0,1,795.691,570.715Z" transform="translate(-256.632 -184.259)"/>
        <path id="Path_2462" data-name="Path 2462" d="M805.32,578.395a1.835,1.835,0,1,1,1.815,1.855,1.835,1.835,0,0,1-1.815-1.855Z" transform="translate(-260.038 -186.231)"/>
        <path id="Path_2463" data-name="Path 2463" d="M816.781,573.876a1.828,1.828,0,1,1,1.393.183,1.835,1.835,0,0,1-1.393-.183Z" transform="translate(-263.441 -184.252)"/>
        <path id="Path_2464" data-name="Path 2464" d="M818.619,561.706a1.835,1.835,0,1,1,.677-2.505A1.835,1.835,0,0,1,818.619,561.706Z" transform="translate(-263.445 -180.322)"/>
        <path id="Path_2465" data-name="Path 2465" d="M890.982,382.951l-.63.569a.772.772,0,0,1-1.1,0L878,371.1a.772.772,0,0,1,.088-1.09l.636-.569a.772.772,0,0,1,1.09,0l11.253,12.411a.758.758,0,0,1-.088,1.1Z" transform="translate(-283.447 -119.274)" fill="#183658"/>
        <path id="Path_2466" data-name="Path 2466" d="M930.336,374.521c-1.5-1.226-13.129,3.893-12.98,5.681s-8.125,19.06-8.125,19.06l-14.273-11.423h0c-.129-.413-1.483-4.855-1.544-5.647s-2.485-2.3-3.6-2.079.955,1.625,1.09,1.882c.372.677-1.063.968-1.063.968s-4.123-2.268-4.211-3.609-.941-4.13-1.828-3.548c-.46.3-.46,2.289-.318,3.23-.264-1.07-.637-2.275-1-2.4-.677-.217-1,.636-.88,1.05s1.2,4.963,1.53,5.478,6.981,5.884,7.942,7.049c0,0,18.465,21.186,19.778,21.742,1.151.488,5.268-6.818,9.155-11.66S935.035,378.36,930.336,374.521Z" transform="translate(-284.66 -120.926)" fill="#f7a491"/>
        <path id="Path_2467" data-name="Path 2467" d="M1007.9,601.324s2.539,2.485,2.6,3.385.224,10.685-.812,11.592-4.063,1.564-3.1,2.587c.738.779,6.426.609,10.2.4,1.1-.061,2.478-8.87,2.918-10.156.63-1.882,2.173-6.094,1.6-7.448a11.108,11.108,0,0,0-3.514-3.176,17.253,17.253,0,0,1-3.893-4.157Z" transform="translate(-324.969 -191.969)" fill="#f48c7f"/>
        <path id="Path_2468" data-name="Path 2468" d="M965.245,613.125l2.275,6.453c.169,1.022.833,3.541.833,4.469,0,3.487-15.655-2.952-12.147-4.5a3.751,3.751,0,0,0,1.422-2.444c.156-1.828-1.32-4.117-1.32-4.117Z" transform="translate(-308.594 -197.988)" fill="#f7a491"/>
        <path id="Path_2469" data-name="Path 2469" d="M931.521,436.17s-1.138,11.511-1.138,11.707c0,18.668-3.69,55.13-2.986,58.644,1.706,8.559,20.123,52.225,20.123,52.225l9.953-1.192L944.5,505.268l4.74-21.044,6.771-41.594Z" transform="translate(-299.428 -140.893)" fill="#333533"/>
        <path id="Path_2470" data-name="Path 2470" d="M968.307,447.152l1.889,10.935,5.112,45.014,19.46,44.012s-2.742,6.4-6.771,7.3l-30.971-45.169-19.237-57.8.677-12.865Z" transform="translate(-302.813 -141.671)" fill="#333533"/>
        <path id="Path_2471" data-name="Path 2471" d="M927.67,381.184l13.8,1.408s.636-11.348.636-16.765c0-6.568-.562-15.032-1.354-14.849a11.99,11.99,0,0,0-6.988,4.191C927.609,363.661,927.67,381.184,927.67,381.184Z" transform="translate(-299.545 -113.384)" fill="#3f964f"/>
        <path id="Path_2472" data-name="Path 2472" d="M935.013,364.461c-.284,2.031-5.593,56.457-5.593,56.457,25.127,12.188,38.994,2.174,38.994,2.174s-.819-38.243.163-43.45c.677-3.44,1.469-26.326-.758-26.962a55.246,55.246,0,0,0-9.689-2.072c-3.047-.311-14.9-.5-16.988.217A27.083,27.083,0,0,0,935.013,364.461Z" transform="translate(-300.11 -113.175)" fill="#3f964f"/>
        <path id="Path_2473" data-name="Path 2473" d="M1017.157,600.43s-5.85,16.521-8.125,17.32c-.609.21-3.528.745-4.062,2.031a5.505,5.505,0,0,0,0,1.693h12.188s1.544-7.286,2.153-10.482c0,0,3.23-7.814,2.871-8.525S1017.157,600.43,1017.157,600.43Z" transform="translate(-324.484 -193.932)" fill="#2c2c2c"/>
        <path id="Path_2474" data-name="Path 2474" d="M963.464,628.291l-1.794-5.681s-3.765,1.6-5.647,1.354a56.7,56.7,0,0,1-5.559-1.354c-7.516,2.478-13.671,3.683-12.547,5.681h25.547Z" transform="translate(-302.811 -201.094)" fill="#2c2c2c"/>
        <path id="Path_2475" data-name="Path 2475" d="M924.009,423.126a4.153,4.153,0,0,1-.379-.284c.447-5.336.366-10.5-1.3-12.256l.785-1.666c1.93,1.5,2.851,5.491,2.492,11.958a11.756,11.756,0,0,1-.257,1.354C924.815,422.841,924.28,423.241,924.009,423.126Z" transform="translate(-297.821 -132.094)" fill="#f7a491"/>
        <path id="Path_2476" data-name="Path 2476" d="M1011.674,427.571a2.043,2.043,0,0,0,0-.352c-.372-3.771-3.494-35.439-4.022-36.787-.474-1.212-14.47-21.3-14.47-21.3l-6.872,9.391,13.461,18.018c.3,1.144,5.16,22.52,5.16,22.52s1,3.893,1.442,6.229c-.2.562-.406,1.1-.582,1.53a13.791,13.791,0,0,1-1.449,2.336,16.036,16.036,0,0,0-1.72,3.054c-.142.548-.4,1.693-.542,2.383s-.345,1.49-.379,1.869a3.846,3.846,0,0,1-.433,1,.6.6,0,0,0,.677.867c.494-.162.873-.8,1.1-1.192.677-1.117,1.016-3.162,1.185-3.054a39.484,39.484,0,0,1,.833,3.961,41.955,41.955,0,0,0,1.185,5.146c.393.731.914.609,1.049.149s-.433-6.013-.433-6.013-.068-.718.244-.494.826,5.329,1.043,6.094.677,1.144,1.138.542c.508-.731-.372-6.141-.372-6.141s-.095-.677.19-.623.677,4.415.88,4.794a.569.569,0,0,0,1.063-.115c.325-.738-.508-5.566-.508-5.566s.041-.386.223-.257.752,3.812,1.131,4.157a.4.4,0,0,0,.575,0c.677-.474-.366-3.975-.359-5.722s-.792-3.7-.555-5.776A6,6,0,0,0,1011.674,427.571Z" transform="translate(-318.48 -119.246)" fill="#f8a492"/>
        <path id="Path_2477" data-name="Path 2477" d="M1001.224,376.917l-11.93,8.051s-6.771-10.055-10.36-13.637c-4.53-4.489,1.652-18.234,4.57-17.456C990.018,355.615,1001.224,376.917,1001.224,376.917Z" transform="translate(-315.579 -114.31)" fill="#3f964f"/>
        <path id="Path_2478" data-name="Path 2478" d="M965.508,333.024l1.788,11.822s-6.534,14.084-10.427,12.865c-3.27-1.029-1.259-13.488-1.259-13.488s1.781-6.69,1.246-10.041S965.508,333.024,965.508,333.024Z" transform="translate(-308.369 -107.36)" fill="#f7a491"/>
        <path id="Path_2479" data-name="Path 2479" d="M957.63,334.183c-.535-3.345,8.653-1.158,8.653-1.158l.149.982a5.719,5.719,0,0,1-1,1.645,12.093,12.093,0,0,1-8.037,3.65,18.46,18.46,0,0,0,.23-5.119Z" transform="translate(-309.145 -107.361)" fill="#f47458"/>
        <path id="Path_2480" data-name="Path 2480" d="M965.271,306.9c.264-.095,2.085,13.468-1.354,17.2s-10.19,4.956-12.608,2.031c-2.668-3.257-2.532-17.835,2.837-21.667S965.271,306.9,965.271,306.9Z" transform="translate(-306.629 -97.963)" fill="#f7a491"/>
        <path id="Path_2481" data-name="Path 2481" d="M957.079,294.27a14.9,14.9,0,0,1,7.834,4.482c1.889.223,4.449,1.266,7.1,5.667,3.257,5.417.853,11.4-2.938,14.334s-3.731,6.338-3.731,6.338l-.6-1.754a9.87,9.87,0,0,1-.474-4.137,8.123,8.123,0,0,1,.616-2.492c.907-1.964-1.957-3.264-2.763-4.9-.623-1.259-.677-4.137-1.625-6.216l-1.165-1.584s-2.708-2.1-5.322-1.51S951.75,293.18,957.079,294.27Z" transform="translate(-307.537 -95.047)" fill="#333533"/>
        <path id="Path_2482" data-name="Path 2482" d="M967,322.366c0,1.659.718,3.013,1.672,3.027s1.747-1.314,1.774-2.966-.725-3.013-1.672-3.027S967,320.714,967,322.366Z" transform="translate(-312.245 -103.188)" fill="#f7a491"/>
        <path id="Path_2483" data-name="Path 2483" d="M956.22,329.291,951,329a2.289,2.289,0,0,0,2.309,2.173C956.105,331.424,956.22,329.291,956.22,329.291Z" transform="translate(-307.078 -106.288)" fill="#fff"/>
      </g>
    </g>
  </g>
</svg>
